<!-- Generator: Adobe Illustrator 22.1.0, SVG Export Plug-In  -->
<svg version="1.1"
	 xmlns="http://www.w3.org/2000/svg" xmlns:xlink="http://www.w3.org/1999/xlink" xmlns:a="http://ns.adobe.com/AdobeSVGViewerExtensions/3.0/"
	 x="0px" y="0px" width="290.8px" height="354px" viewBox="0 0 290.8 354" style="enable-background:new 0 0 290.8 354;"
	 xml:space="preserve">
<style type="text/css">
	.st0{fill:#FFFFFF;}
	.st1{fill:#F4D9BF;}
	.st2{fill:#E3BB94;}
	.st3{fill:none;}
	.st4{fill:#04508C;}
	.st5{fill:#5B5B5B;}
	.st6{fill:#3A3F3F;}
	.st7{opacity:0.5;}
	.st8{fill:#366B80;}
	.st9{fill:#FEB747;}
	.st10{fill:#C39368;}
	.st11{fill:#EFCAA6;}
	.st12{fill:#F7F7F7;}
	.st13{fill:#050505;}
	.st14{opacity:0.5;fill:#EC7B23;}
	.st15{display:none;opacity:0.8;}
	.st16{display:inline;fill:#EC7B23;}
	.st17{fill:#461A00;}
	.st18{fill:#F15860;}
	.st19{fill:#F12838;}
	.st20{display:none;}
	.st21{display:inline;}
	.st22{fill:#C22099;}
	.st23{fill:#137596;}
	.st24{display:inline;opacity:0.3;}
	.st25{fill:#133540;}
	.st26{display:inline;fill:#F4D9BF;}
	.st27{display:inline;fill:#E3BB94;}
	.st28{display:inline;fill:#E30613;}
	.st29{fill:#821003;}
	.st30{display:inline;fill:none;}
	.st31{display:inline;fill:#D10613;}
	.st32{display:inline;fill:#5A2F05;}
	.st33{display:inline;opacity:0.4;}
	.st34{fill:#5A2F05;}
	.st35{display:inline;fill:#EFCAA6;}
	.st36{display:inline;fill:#C39368;}
	.st37{display:inline;fill:#93350B;}
	.st38{fill:#673121;}
	.st39{display:inline;fill:#F9CBC0;}
	.st40{display:inline;fill:#FF2500;}
</style>
<defs>
</defs>
<g>
	<g>
		<path class="st0" d="M59.5,339.9c0,0,1.7,6.2,1.5,8.8l1.5-0.5l1-9.5L59.5,339.9z"/>
		<g>
			<path class="st0" d="M55,344.4c-1.8,2.7-7.9,0.2-7.9,0.2l0,0c-0.2,0.1-0.3,0.3-0.4,0.3c-2.3,1.3-7.7,3.1-7.2,6.3
				c0,0,1.8,2.2,7.2,2c5.3-0.2,10.8-1.5,11.1-4c0.3-2.5-0.4-8.8,5.8-10.7c0,0,0.6-1.4,0.5-4.1C58.8,335.6,56.5,342.1,55,344.4z"/>
			<path class="st0" d="M57.4,340.8c-1.2,2.4-1.5,5.5-3.6,7.3c-4,3.4-9.4,3.2-14.3,2.1c-0.1,0.4-0.2,0.8-0.1,1.2c0,0,1.8,2.2,7.2,2
				c5.3-0.2,10.8-1.5,11.1-4c0.3-2.5-0.4-8.8,5.8-10.7c0,0,0.4-0.9,0.5-2.6C61.3,336.9,58.7,338.2,57.4,340.8z"/>
			<path class="st1" d="M56.7,330.3c0,0-6.8,11.9-9.6,14.4l0,0c0,0,6.1,2.4,7.9-0.2c1.5-2.3,3.9-8.8,9-9.9c0-1.2-0.2-2.6-0.5-4.3
				H56.7z"/>
			<path class="st2" d="M63.9,332.8c-0.1-0.8-0.2-1.6-0.4-2.5h-6.8c0,0-0.4,0.7-1.1,1.9C57.6,334.2,61.1,334,63.9,332.8z"/>
		</g>
		<g>
			<path class="st3" d="M88.9,341.4c0-0.2,0-0.3,0-0.5C88.9,340.9,88.9,341.1,88.9,341.4z"/>
			<path class="st3" d="M88.9,340.9C88.9,340.9,88.9,340.9,88.9,340.9C88.9,340.9,88.9,340.9,88.9,340.9L88.9,340.9z"/>
			<path class="st0" d="M100.1,342.8c-0.6,2.2-2.5,3.5-6.1,4c-4.7,0.6-5.1-3.9-5.1-5.4c-0.2,3.9-1.2,10.5,2,11.9
				c3.8,1.7,12.7,0.4,11.2-4.7C101.8,347.2,101,345.1,100.1,342.8z"/>
			<path class="st0" d="M102.2,348.6c-0.4-1.5-1.2-3.6-2.1-5.8c-0.5,1.9-2,3.1-4.7,3.8c0.5,1.9,0.7,4.1-1.2,5.1
				c-1.7,0.9-3.6,0.4-5.1-0.6c0.3,1,0.9,1.9,1.8,2.3C94.7,355,103.6,353.7,102.2,348.6z"/>
			<path class="st1" d="M94,346.8c3.6-0.5,5.5-1.8,6.1-4c-2.2-5.5-5.2-12.3-5.5-14.4c-0.4-3.1-0.4-3.1-0.4-3.1l-5.8,3
				c0,0,0.3,8.2,0.6,11.5c0,0.3,0,0.7,0,1.1l0,0c0,0,0,0,0,0c0,0.2,0,0.3,0,0.5C88.9,342.9,89.3,347.4,94,346.8z"/>
			<path class="st2" d="M94.9,329.5c-0.1-0.5-0.2-0.9-0.3-1.2c-0.4-3.1-0.4-3.1-0.4-3.1l-5.8,3c0,0,0,1,0.1,2.4
				C90.1,331.5,92.8,330.7,94.9,329.5z"/>
		</g>
		<path class="st4" d="M23.2,157.3c0,0-6.5,9.2-3.4,27.1s17,49.6,20.4,68.8c3.4,19.1,15.6,78.1,15.6,78.1s2.8,1.6,8.1,0
			c0,0-4.5-55.2-8.6-71.1c0,0-3.4-9.1-2.6-11s0.8-2.5-0.8-4.5c-1.5-2-11.2-56.4-8.6-66.5c0,0,2.4,0.2,4.6-0.6
			c0,0,16.6,43.1,22.9,69.1s16.5,82.1,16.5,82.1s4.6,2.4,9.1-1.2c0,0-4.4-44.8-7-57.9s-7.6-19.1-6.9-20.4s-0.9-2.5-1.4-2.9
			s-5.2-40.1-6.1-46.4s-4.9-35.3-7.4-41.2L23.2,157.3z"/>
		<path class="st5" d="M62.1,167.5c1.5,4.2,4.9,7.1,8.7,5.4c-1.1-6.3-2.3-11.8-3.2-14l-6.8-0.2C60.9,161.7,61.1,164.7,62.1,167.5z"
			/>
		<path class="st6" d="M23,167.4c2-2.9,2.6-6.6,2.5-10.1l-2.3-0.1c0,0-3.3,4.7-4,13.8C20.7,170.2,22.2,168.5,23,167.4z"/>
		<g class="st7">
			<path class="st8" d="M89.4,269.7c-2.6-13.1-7.6-19.1-6.9-20.4s-0.9-2.5-1.4-2.9s-5.2-40.1-6.1-46.4s-4.9-35.3-7.4-41.2l-44.5-1.6
				c0,0-1,1.5-2.1,4.5c4.1,3.4,13.9,8.6,33.4,5.5c0,0,11.5-2.3,12.7,1.9c1.2,4.2,9.8,74,11.7,77.5c1.8,3.5,2.5,1.2,1.8,3.5
				c-0.7,2.3,4,6,7,29.5c2.3,18,5.3,40,6.6,49.2c0.7-0.3,1.5-0.7,2.2-1.3C96.4,327.6,92.1,282.8,89.4,269.7z"/>
			<path class="st8" d="M38.2,178.8c0,0,3.8,40.7,8.5,57c4.7,16.3,4,12,2,16.5s2.7,1.9,3.3,6.1c0.6,4,8.3,53.4,9.4,73.5
				c0.8-0.1,1.6-0.3,2.6-0.6c0,0-4.5-55.2-8.6-71.1c0,0-3.4-9.1-2.6-11s0.8-2.5-0.8-4.5c-1.5-2-11.2-56.4-8.6-66.5
				c0,0,2.4,0.2,4.6-0.6c0,0-11.6-0.9-15.6-4.2C32.3,173.3,35,177.1,38.2,178.8z"/>
		</g>
		<path class="st1" d="M43.8,88.7c0,0,0.9,4-1,4.2s-8.6-0.4-11.7,1.5S0.2,117.8,1.3,123.3c1.1,5.5,16.2,28.1,16.4,28.4
			s3.6-3.5,3.6-3.5s-13-25.4-11.5-26.6s22.2-17.5,22.2-17.5s14.4,9.5,36.4,2.2c0,0,38.9,24.4,44.1,20.9c5.2-3.5,7.5-39.1,7.5-39.1
			s4.6-0.2,9.5-3.8c4.9-3.5,10.9-9.4,12.9-11.4s5.2-5.5,4.1-6c0,0,0-2.5-1.8-2.4c0,0-0.6-1.6-2.6-1.5s-3.8,1.6-3.8,1.6
			s-0.5-1.2-2.8-0.6s-12.5,8.2-15.1,11.5l-2.5,0.6c0,0-0.9-1.1-0.2-4s-1.9-5-3-5.2s-1.5,0.9-0.9,3.6s-5.1,10.8-0.2,14.5
			c0,0-6.7,23.2-6.5,32.5c0,0-13.2-5.9-20.4-11.9s-14.2-10.9-21.6-12s-11.5,0.8-11.9-0.9s0.6-4.6,0.6-4.6L43.8,88.7z"/>
		<path class="st2" d="M15.8,148.8c1.1,1.7,1.8,2.8,1.9,2.9c0.1,0.2,3.6-3.5,3.6-3.5s-1.1-2.2-2.6-5.2
			C17.5,144.7,16.6,146.8,15.8,148.8z"/>
		<path class="st2" d="M40.8,104.1c-2.6-3-3.3-7.1-3.4-11c-1.9,0.1-4,0.3-5.5,1c0.7,3.4,0.8,6.9,0.8,10.4c2,1.1,8.8,4.5,19,4.6
			C47.5,108.8,43.6,107.4,40.8,104.1z"/>
		<path class="st2" d="M66.8,94c-0.5-0.1-1.1-0.2-1.6-0.3c0,0-0.1,0-0.1,0c-0.2,3.5-0.3,7.2-2.1,10.2c-1.7,3-4.5,4.6-7.8,5.1
			c4-0.3,8.4-1,13.2-2.6c0,0,0.2,0.1,0.7,0.4C67.3,102.9,67.2,98.4,66.8,94z"/>
		<path class="st2" d="M43.2,92.8c3.1,0.6,6.5,0.3,9.1-0.1c0.3,0,0.7-0.1,1-0.1c-0.3-1.7,0.7-4.5,0.7-4.5l-10.1,0.5
			C43.8,88.7,44.6,92.2,43.2,92.8z"/>
		<path class="st9" d="M30.9,107.4c0,0-6.2,7.8-4,13.4s4.9,3.9,4.2,6.9s-9.6,31.4-9.6,31.4s18.1,13.6,46.5,0.8c0,0-4.6-10-4.8-13
			s1-19.1,1-19.1s7.4-3.2,6.8-12.8c-0.4-5.7-5-9.2-5-15.6s0-6.4,0-6.4h-3.3c0,0,1.3,10.9-7,13.4c-8.3,2.5-21-0.4-19.3-13.2l-3.7-0.2
			C32.8,92.9,33,104.4,30.9,107.4z"/>
		<g>
			<path class="st10" d="M118.8,83.3c0,0,2.5-2.8-0.9-7.5C117.9,75.8,121.9,79.4,118.8,83.3z"/>
			<path class="st10" d="M120.6,75.6c0,0,9.9-0.4,10.6,4C131.1,79.6,130.9,76.4,120.6,75.6z"/>
			<path class="st10" d="M132.3,76.9c0,0,0.8-0.7,2.1-1.9c0.3-0.3,0.6-0.6,1-0.9c0.4-0.3,0.7-0.7,1.1-1c0.4-0.3,0.7-0.7,1.1-1.1
				c0.4-0.4,0.8-0.8,1.2-1.1c0.8-0.7,1.7-1.4,2.6-2c0.9-0.6,1.7-1.1,2.5-1.5c0.8-0.4,1.5-0.6,2-0.6c0.5,0,0.8,0.2,0.8,0.2
				c0,0-0.1,0-0.2,0c-0.1,0-0.3,0-0.5,0c-0.5,0.1-1.1,0.4-1.8,0.8c-0.7,0.4-1.5,1-2.3,1.6c-0.8,0.6-1.7,1.3-2.5,2.1
				c-0.9,0.7-1.6,1.5-2.4,2.2c-0.4,0.3-0.8,0.7-1.2,1c-0.4,0.3-0.8,0.6-1.1,0.8c-0.7,0.5-1.3,0.9-1.7,1.1
				C132.6,76.8,132.3,76.9,132.3,76.9z"/>
			<path class="st10" d="M128.1,76.6c0,0,0.2-0.2,0.6-0.7c0.4-0.4,0.9-1,1.6-1.7c0.7-0.7,1.5-1.5,2.4-2.3c0.9-0.8,1.9-1.6,2.9-2.5
				c1-0.8,2.1-1.6,3.1-2.2c0.5-0.3,1-0.7,1.5-0.9c0.5-0.3,0.9-0.5,1.4-0.7c0.4-0.2,0.8-0.4,1.2-0.5c0.4-0.1,0.7-0.3,1-0.3
				c0.6-0.1,0.9-0.1,0.9-0.1s-0.3,0.1-0.8,0.3c-0.3,0.1-0.6,0.3-0.9,0.4c-0.4,0.2-0.7,0.4-1.1,0.6c-0.4,0.2-0.8,0.5-1.3,0.8
				c-0.5,0.3-0.9,0.7-1.4,1c-1,0.7-2,1.5-3,2.3c-1,0.8-2,1.6-3,2.4c-0.9,0.8-1.8,1.5-2.6,2.1C129.1,75.7,128.1,76.6,128.1,76.6z"/>
			<path class="st10" d="M138.4,64.7c0,0-3.5,2.6-7,5.3c-0.9,0.7-1.7,1.3-2.5,2c-0.8,0.7-1.5,1.3-2.1,1.8c-1.2,1.1-2,1.8-2,1.8
				s0.7-0.9,1.7-2.1c0.6-0.6,1.3-1.3,2-2c0.8-0.7,1.6-1.4,2.5-2.1c0.9-0.6,1.8-1.3,2.6-1.9c0.9-0.6,1.7-1.1,2.4-1.5
				C137.4,65.1,138.4,64.7,138.4,64.7z"/>
		</g>
		<g>
			<path class="st11" d="M25.5,147.4c0,0-4.9-4.7-6.4-3.6c-1.5,1.1-0.1,2.9-0.1,2.9s-3.3,0.6-2.3,4.6c0,0-2.8,2-0.8,5.5
				c0,0-2.1,1.4,0.1,3.3s6.8,1.4,6.6-0.9c0,0,1.2-0.3,0.8-1.4c0,0,1.9-0.9,1.5-2.8s-0.8-5-0.1-5.3L25.5,147.4z"/>
			<path class="st10" d="M24.4,150c-0.2-0.9-0.1-1.9-0.4-2.8c0,0,0,0,0,0c0.1,0.4,0.1,0.8,0,1.2c0,0.5,0.1,1.2,0.2,1.7
				c0.1,0.7,0.1,1.3,0.3,2c0,0.1,0.1,0,0.1,0C24.5,151.4,24.5,150.7,24.4,150z"/>
			<g>
				<path class="st10" d="M19,146.7c0,0,0.3,0.7,0.6,1.8c0.4,1.1,0.9,2.5,1.3,3.9c0.5,1.4,1,2.8,1.5,3.8c0.3,0.5,0.5,0.9,0.7,1.1
					c0.2,0.2,0.4,0.3,0.4,0.3s0,0-0.1,0c-0.1,0-0.2-0.1-0.4-0.2c-0.3-0.2-0.6-0.6-0.9-1.1c-0.6-1-1.2-2.4-1.7-3.8
					c-0.5-1.4-0.9-2.9-1.1-4C19.1,147.4,19,146.7,19,146.7z"/>
				<path class="st10" d="M16.6,151.3c0,0,0.2,0.6,0.7,1.5c0.2,0.4,0.5,0.9,0.8,1.5c0.3,0.5,0.6,1.1,1,1.6c0.2,0.3,0.4,0.5,0.6,0.7
					c0.2,0.2,0.5,0.4,0.7,0.6c0.2,0.2,0.5,0.3,0.7,0.5c0.3,0.1,0.5,0.2,0.7,0.3c0.2,0,0.4,0.1,0.6,0.1c0.2,0,0.4,0,0.5,0
					c0.3,0,0.5,0,0.5,0s-0.2,0-0.4,0.1c-0.1,0-0.3,0.1-0.5,0.1c-0.2,0-0.4,0-0.7,0c-0.2-0.1-0.5-0.1-0.8-0.2
					c-0.3-0.1-0.6-0.3-0.8-0.4c-0.2-0.2-0.5-0.4-0.8-0.6c-0.2-0.2-0.5-0.5-0.7-0.8c-0.8-1.1-1.4-2.3-1.7-3.3
					C16.7,152,16.6,151.3,16.6,151.3z"/>
				<path class="st10" d="M15.8,156.8c0,0,0.3,0.4,0.8,0.8c0.5,0.5,1.3,0.9,2.2,1.2c0.4,0.1,0.9,0.2,1.3,0.3c0.4,0,0.8,0.1,1.2,0.1
					c0.4,0,0.6,0,0.9,0c0.2,0,0.3,0,0.3,0s-0.1,0-0.3,0.1c-0.2,0-0.5,0.2-0.8,0.2c-0.4,0.1-0.8,0.1-1.2,0.1c-0.5,0-0.9-0.1-1.4-0.2
					c-0.5-0.2-0.9-0.4-1.3-0.6c-0.4-0.3-0.7-0.6-0.9-0.8C16,157.3,15.8,156.8,15.8,156.8z"/>
			</g>
		</g>
		<g>
			<path class="st12" d="M66.4,102c0.1,0.6,0.3,1.1,0.5,1.7C66.6,102.7,66.4,102.1,66.4,102z"/>
			<path class="st12" d="M66.4,102C66.4,102,66.4,102,66.4,102L66.4,102C66.4,102,66.4,102,66.4,102z"/>
			<path class="st12" d="M46.4,108.7c14.9,2.4,18.2-8.4,17.6-15.7h-1.2c0,0,1.3,10.9-7,13.4c-8.3,2.5-21-0.4-19.3-13.2L34.9,93
				C34.3,97,34.2,106.7,46.4,108.7z"/>
		</g>
		<path class="st13" d="M62.3,7.5c0,0-15.1-14.3-38.6-3.3c-23.5,11-26,46.7-22.4,58C5,73.5,9.8,85.6,0.1,84.8c0,0,0.9,6.5,8.3,5.2
			c0,0-1.5,2-2.8,2.4c0,0,8.1,3.2,15.9-3.3c0,0-1.2,3.2-2.7,3.9c0,0,10.7-0.2,17.3-5.1l29.1-4.1c0,0,4.5,2.8,17.3,1.6l-1.7-2.7
			c0,0,4.3,1.3,11.4-1.8l-3-1.8c0,0,4.3,1.1,7.9-3.8c0,0-7.3,2.3-6.9-8.5C90.6,55.9,91,36,85.4,22.9C79.7,9.8,67.8,5,62.3,7.5z"/>
		<path class="st14" d="M12,85.4c-3.8,2.1-9.2,2.7-11.9-0.5c0.2,0.8,1.4,5.7,7.4,5.1C9.3,88.9,10.7,87.3,12,85.4z"/>
		<path class="st14" d="M84.3,75c2.2,2.7,5.1,3.8,8.3,3.7c1.3-0.5,2.9-1.4,4.3-3.3C93.5,78.1,88.2,77.3,84.3,75z"/>
		<path class="st14" d="M88,82.2c-3.6,0.1-7.3-1.1-9.4-3.5c0.4,1.8,1.3,3.2,2.5,4.2l-0.2-0.3C80.8,82.5,83.4,83.3,88,82.2z"/>
		<path class="st14" d="M21.9,84.4c-3.2,3.8-9.2,8.4-14.6,8.4c2.7,0.5,7.9,0.8,13.2-3.1C21.5,88.2,22,86.4,21.9,84.4z"/>
		<g class="st15">
			<path class="st16" d="M77.7,71.1c3.6-11-0.9-32.3-0.9-32.3l6.7-2.2c-18,0.2-24.4-15.3-24.4-15.3C45.7,34.9,6.7,32.5,6.7,32.5
				c1.4,1.1,5.5,1.4,5.5,1.4c-2.3,9.7-1.3,24.8-1.3,24.8c1.8,21.8,13.9,29.6,19.4,32c2-0.7,4.1-1.7,5.8-3l29.1-4.1
				c0,0,4.5,2.8,17.3,1.6C82.6,85.2,74.1,82.1,77.7,71.1z"/>
		</g>
		<path class="st11" d="M14.6,58.9c0,0-3.1-1.4-6.4,1.4c-3.3,2.8-1.4,11.3,9.9,10.5L14.6,58.9z"/>
		<path class="st11" d="M75,53.3c0,0,3.8-2.9,8.4,0.8c4.7,3.8-0.2,11.1-6.8,10.9L75,53.3z"/>
		<path class="st10" d="M9.4,64.4c0,0,2.8-2.1,5.5,1.3C14.9,65.7,12,64.5,9.4,64.4z"/>
		<path class="st10" d="M76.9,61c0,0,1.1-4.6,4.8-4C81.6,57,78.6,57.6,76.9,61z"/>
		<path class="st1" d="M14.7,33.5c0,0-7.4,21.5,3.6,42.4c0,0,9.6,16.9,31.3,14.4c0,0,23.3-3.3,27.2-25.2c0,0,1.2-16-2.3-27.6
			c0,0-11.6-3-15.4-12.4C59,25.1,45.3,37.6,14.7,33.5z"/>
		<g>
			<path class="st17" d="M33.4,57.2c0.1,2-0.5,3.7-1.4,3.8c-0.9,0.1-1.7-1.6-1.8-3.6c-0.1-2,0.5-3.7,1.4-3.8
				C32.4,53.5,33.2,55.1,33.4,57.2z"/>
			<path class="st0" d="M31.4,55.7c0,0.6-0.2,1.1-0.5,1.1c-0.3,0-0.5-0.5-0.5-1.1c0-0.6,0.2-1.1,0.5-1.1
				C31.2,54.6,31.4,55.1,31.4,55.7z"/>
		</g>
		<g>
			<path class="st17" d="M58.9,54.3c0.2,2-0.3,3.8-1.2,3.9c-0.9,0.1-1.8-1.5-2-3.5c-0.2-2,0.3-3.8,1.2-3.9
				C57.7,50.7,58.6,52.3,58.9,54.3z"/>
			<path class="st0" d="M56.8,53c0,0.6-0.2,1.1-0.4,1.1c-0.3,0-0.5-0.5-0.5-1.1c0-0.6,0.2-1.1,0.5-1.1C56.6,51.9,56.8,52.4,56.8,53z
				"/>
		</g>
		<path class="st17" d="M29.4,44.4c-1.9,0.2-2.6,1.6-3.1,3.3c0,0.1,0.1,0.1,0.1,0c0.3-0.5,0.4-1,0.7-1.5c0.6-0.9,1.7-1,2.6-0.8
			c0.7,0.2,1.2,0.5,1.8,0.9c0.5,0.4,0.8,1.1,1.2,1.7c0.1,0.2,0.4-0.1,0.3-0.2C32.7,46.3,31.2,44.3,29.4,44.4z"/>
		<path class="st17" d="M54.2,39.1c1.9-0.3,3,0.9,3.8,2.5c0,0.1-0.1,0.1-0.1,0c-0.4-0.4-0.7-0.9-1.1-1.3c-0.8-0.7-1.9-0.6-2.7-0.1
			c-0.6,0.3-1.1,0.8-1.5,1.3c-0.4,0.5-0.5,1.3-0.7,1.9c-0.1,0.2-0.4,0-0.4-0.1C51.5,41.7,52.4,39.4,54.2,39.1z"/>
		<path class="st18" d="M38.8,77.1c0,0,12.5,2.5,19.8-5.8c0,0,0.6,11.8-7.7,13.4C42.1,86.3,38.8,77.1,38.8,77.1z"/>
		<path class="st19" d="M46.3,84.5c1.3,0.4,2.9,0.5,4.6,0.2c3.2-0.6,5-2.7,6.2-5C53.3,78.3,46.9,80.7,46.3,84.5z"/>
		<path class="st0" d="M46.8,81.3c2-0.3,4-0.9,5.9-1.8c2.1-1,4.5-2.5,4.9-5c0.1-0.8,0.2-1.6,0.2-2.4c-5.6,5.4-13.4,5.5-17,5.2
			C42.1,79.6,43.8,81.8,46.8,81.3z"/>
		<g>
			<path class="st10" d="M58.5,71c-0.2,0.3-0.5,0.6-0.8,1c-0.3,0.4-0.8,0.8-1.2,1.2c-0.5,0.4-1,0.8-1.7,1.1c-0.3,0.2-0.6,0.4-1,0.5
				c-0.3,0.2-0.7,0.3-1,0.5c-0.7,0.3-1.5,0.6-2.3,0.8c-0.8,0.2-1.6,0.4-2.4,0.5c-0.8,0.1-1.7,0.3-2.5,0.3c-0.8,0.1-1.6,0.1-2.4,0.1
				c-0.8,0-1.6,0-2.3,0c-0.7-0.1-1.4-0.1-2-0.2c-0.3-0.1-0.6-0.1-0.9-0.2c-0.3-0.1-0.5-0.2-0.8-0.2c-0.3-0.1-0.4-0.2-0.6-0.3
				c-0.2-0.1-0.4-0.2-0.5-0.3c-0.6-0.4-0.8-0.8-0.8-0.8s0,0.1,0.1,0.3c0.1,0.2,0.3,0.4,0.6,0.7c0.1,0.1,0.3,0.3,0.5,0.4
				c0.2,0.1,0.4,0.3,0.6,0.4c0.2,0.1,0.5,0.2,0.8,0.3c0.3,0.1,0.6,0.2,0.9,0.2c0.6,0.2,1.3,0.2,2.1,0.4c0.7,0.1,1.5,0.1,2.3,0.1
				c0.8,0,1.6,0,2.5-0.1c0.8-0.1,1.7-0.2,2.5-0.3c1.7-0.3,3.4-0.8,4.8-1.4c0.4-0.2,0.7-0.3,1.1-0.5c0.3-0.2,0.7-0.4,1-0.6
				c0.6-0.4,1.2-0.9,1.6-1.3c0.5-0.5,0.9-0.9,1.2-1.3c0.3-0.4,0.6-0.8,0.7-1.1C58.6,71.1,58.6,71,58.5,71z"/>
			<path class="st10" d="M57,69.2c0,0,0.1,0.1,0.2,0.2c0.1,0.1,0.3,0.3,0.4,0.5c0.2,0.2,0.4,0.4,0.6,0.6c0.3,0.2,0.5,0.5,0.8,0.6
				c0.3,0.2,0.6,0.4,0.9,0.5c0.1,0.1,0.3,0.1,0.4,0.2c0.1,0.1,0.3,0.1,0.4,0.2c0.5,0.2,0.9,0.4,0.9,0.4s-0.4,0.1-0.9,0.1
				c-0.1,0-0.3,0-0.5,0c-0.2,0-0.3-0.1-0.5-0.1c-0.2-0.1-0.4-0.1-0.5-0.2l-0.5-0.3c-0.2-0.1-0.3-0.2-0.5-0.4
				c-0.1-0.1-0.3-0.3-0.4-0.4c-0.1-0.1-0.2-0.3-0.3-0.4c-0.1-0.1-0.2-0.3-0.2-0.4C57,69.6,57,69.3,57,69.2z"/>
		</g>
		<path class="st10" d="M42.4,64.8c-0.3-0.7-0.3-1.7,0.5-2.1c0.5-0.2,0.9-0.2,1.4-0.1c-1.2-0.4-2.5-0.2-2.6,1.4
			c-0.1,1.5,1.6,3,3.1,3.1C43.8,66.6,42.8,65.7,42.4,64.8z"/>
	</g>
	<g class="st20">
		<g class="st21">
			<path class="st22" d="M195.1,344.2c-7.4-0.6-4.8-8.9-4.8-9.2c-2.6,7-4.8,14.9-0.1,17.2c8.3,4.1,16.8-1.1,14.9-14.1
				c0-0.2-0.1-0.4-0.1-0.6C203.7,342.5,201.4,344.7,195.1,344.2z"/>
			<path class="st22" d="M205.2,338.1c0-0.2-0.1-0.4-0.1-0.6c-1.1,4-2.8,6.2-6.6,6.7c-0.4,3-1.2,6.3-4.3,7.5
				c-2.1,0.8-4.3,0.1-5.9-1.4c0.4,0.8,1.1,1.5,2,1.9C198.6,356.4,207.1,351.2,205.2,338.1z"/>
			<path class="st1" d="M203.3,299.5l-16.5-0.7c0,0,5.6,21.3,7,24.8c0.6,1.5-1.5,6.2-3.4,11.4c-0.1,0.3-2.6,8.6,4.8,9.2
				c6.3,0.5,8.6-1.7,9.9-6.7C203.1,324.5,201.1,307.5,203.3,299.5z"/>
			<path class="st2" d="M202.3,307.9c0-3.3,0.3-6.2,0.9-8.5l-16.5-0.7c0,0,1.1,4.3,2.5,9.3C193.6,309,198.1,308.9,202.3,307.9z"/>
		</g>
		<g class="st21">
			<path class="st1" d="M265,336.8c5-2.1,7.2-4.3,6.7-9c-8.4-9.8-12.6-10.3-13-14.8c-0.4-4.5-2.7-15.1-2.7-15.1L240,301
				c0,0,9.6,16.9,11.6,21.8c0.8,2,2.4,6.5,4.6,11.2C256.2,334,259.1,339.3,265,336.8z"/>
			<path class="st2" d="M253.5,305.9c1.1-0.3,2.4-0.7,3.7-1.3c-0.7-3.6-1.4-6.7-1.4-6.7L240,301c0,0,1.3,2.4,3.1,5.6
				C246.5,307.2,250.4,306.8,253.5,305.9z"/>
			<path class="st22" d="M271.9,328.1c-0.1-0.1-0.2-0.2-0.2-0.3c0.5,4.7-1.7,6.9-6.7,9c-5.9,2.5-8.7-2.8-8.8-2.9
				c3.1,6.7,7.4,13.7,12.2,13.3C276.4,346.6,280.5,338.2,271.9,328.1z"/>
			<path class="st22" d="M271.9,328.1c-0.1-0.1-0.2-0.2-0.2-0.3c0.4,3.2-0.6,5.2-2.8,6.9c1.3,1.7,2.3,3.6,2.7,5.6
				c0.6,2.9-0.2,6.3-3.4,6.8c0,0,0,0.1,0,0.1c0,0,0,0,0.1,0C276.4,346.6,280.5,338.2,271.9,328.1z"/>
		</g>
		<g class="st21">
			<path class="st23" d="M163.7,181.2l-2.1,3.1c0,0,0.5,22.9,8.5,43.7c8.1,20.9,10.3,32,10,34.9c-0.4,3-2.6,25.4,3.9,39.4
				c0,0,14.1,3.3,21.3-0.4c0,0,1.9-75.2,5-83.4l6.2,0.8c0,0,0.7,30.8,7.7,43.9c7,13.1,14.9,39.4,14.9,39.4s10.9,2,18.6-2.7
				c0,0-2.7-19.6-5.3-30c0,0-0.9-2.3,0.2-9.8c1.1-7.5,6.6-39.3,10.1-44.4c3.5-5.1,6.1-20.1,6-26.5L163.7,181.2z"/>
			<path class="st23" d="M200.7,216.5c0,0,0.4,0.1,1,0.2c0.6,0.1,1.5,0.3,2.6,0.5c1.1,0.2,2.3,0.4,3.7,0.6c0.7,0.1,1.4,0.2,2.1,0.3
				c0.7,0.1,1.4,0.2,2.2,0.2c0.7,0.1,1.5,0.1,2.2,0.2c0.7,0,1.4,0.1,2.1,0.1c0.7,0,1.3,0,2,0c0.6,0,1.2-0.1,1.8-0.1
				c0.5-0.1,1-0.1,1.5-0.2c0.4,0,0.8-0.1,1.1-0.2c0.6-0.1,1-0.2,1-0.2s-0.3,0.1-1,0.4c-0.3,0.1-0.7,0.3-1.1,0.4
				c-0.4,0.1-0.9,0.2-1.5,0.4c-0.5,0.1-1.1,0.2-1.8,0.3c-0.6,0.1-1.3,0.1-2,0.2c-1.4,0.1-2.9,0-4.4-0.1c-1.5-0.2-3-0.4-4.3-0.6
				c-1.4-0.3-2.6-0.6-3.7-0.9c-1.1-0.3-1.9-0.6-2.5-0.9C201.1,216.6,200.7,216.5,200.7,216.5z"/>
		</g>
		<g class="st24">
			<path class="st25" d="M195.9,227.1c1.2,8-3.1,33-1.6,39.5c1.3,5.6,2,19.9-0.9,37.2c4,0.2,8.5-0.1,11.7-1.7c0,0,1.8-73.7,4.9-83.1
				c-2.9-0.6-14.4-3.6-23.3-11.2C186.8,207.8,194.7,219.1,195.9,227.1z"/>
			<path class="st25" d="M262.5,215.9c3.5-5.1,6.1-20.1,6-26.5l-104.9-8.1l-2.1,3.1c0,0,0,2,0.3,5.3c8,5.6,31.1,18.2,74.3,15.7
				l10.5-1.8c0,0-10.2,53.8-7.8,63c2.1,7.7,7.7,28,9.8,36.3c2.9-0.4,6.1-1.2,8.9-2.9c0,0-2.7-19.6-5.3-30c0,0-0.9-2.3,0.2-9.8
				C253.5,252.8,259.1,221,262.5,215.9z"/>
		</g>
		<path class="st26" d="M267.7,130.7l5.1-9.5c0,0,21.8,14.1,17.5,27.4c-4.2,13.3-21.3,25.8-21.3,25.8l-2.7-11.5
			c0,0,14.2-11.1,12.6-18.2C277.4,137.8,267.7,130.7,267.7,130.7z"/>
		<path class="st27" d="M277,124.4c-2.5-2-4.3-3.2-4.3-3.2l-5.1,9.5c0,0,1.7,1.2,3.8,3.2C274.1,131.1,275.9,127.9,277,124.4z"/>
		<path class="st27" d="M270.2,166.7c-0.3,0-0.6-0.3-0.5-0.6c0.5-2.1,0.5-3.7-1-5.1c-1.4,1.3-2.4,2.1-2.4,2.1l2.7,11.5
			c0,0,0.8-0.6,2.1-1.7C271.7,170.7,272.5,167,270.2,166.7z"/>
		<path class="st26" d="M169.9,107.1c0,0-25.6,12.9-30.3,26.3c-4.7,13.3,13,30.6,21.1,34.4l4.2-10c0,0-17.1-9.7-14.2-20.1
			c2.9-10.4,23.8-19.5,23.8-19.5L169.9,107.1z"/>
		<path class="st27" d="M169.5,120.7c3-1.6,5.1-2.5,5.1-2.5l-4.7-11c0,0-2.2,1.1-5.3,3C165.3,113.8,167.4,117.3,169.5,120.7z"/>
		<path class="st26" d="M159.2,153.8c-4.7-3.8-10.2-9.8-8.5-16.1c1.9-6.8,11.6-13.1,18-16.6c-2.1-3.3-4.2-6.8-5-10.5
			c-7.9,4.7-20.9,13.7-24.2,22.8c-3.8,10.7,6.8,23.8,15.4,30.6C155.9,160.4,157.2,156.9,159.2,153.8z"/>
		<path class="st27" d="M161.9,155.8c-0.8,0.4-1.6,1.1-2,1.8c-0.9,1.5-0.7,3.1-0.1,4.7c0.1,0.2,0,0.4-0.2,0.5
			c-1.3,0.6-1.6,2-1.4,3.5c0.9,0.6,1.8,1.1,2.6,1.5l4.2-10C165,157.8,163.7,157.1,161.9,155.8z"/>
		<path class="st28" d="M268.5,190.5c0.2-3.8,0.3-17.9-4.7-28.2c0,0-1.1-14.1-5-19.7c0,0,3-7,2.4-12.6l7,3.6c0,0,6-6.8,5.7-13.6
			c0,0-32.5-25.5-65.9-23.3c0,0-17.2,0.3-27,3.9c-9.8,3.6-13.8,6.4-13.8,6.4s1.1,9.7,6.5,16.6l6.6-2.4c0,0-6.1,9.6-2.9,17.6
			c0,0-14.6,18.9-15.9,45.5c0,0,40.3,30.3,106.7,6.6C268.3,190.7,268.4,190.6,268.5,190.5z"/>
		<g class="st21">
			<path class="st29" d="M185.2,115.5c0,0-0.3,0.4-0.7,0.9c-0.5,0.5-1.1,1.3-1.7,2c-0.3,0.4-0.6,0.7-0.9,1c-0.3,0.3-0.6,0.6-0.8,0.9
				c-0.4,0.5-0.8,0.9-0.8,0.9s0.1-0.5,0.4-1.1c0.2-0.3,0.4-0.7,0.6-1.1c0.2-0.4,0.6-0.7,0.9-1.1c0.6-0.7,1.4-1.4,1.9-1.8
				C184.7,115.7,185.2,115.5,185.2,115.5z"/>
			<path class="st29" d="M256.6,118.3c0,0,0.5,0.6,1.1,1.6c0.3,0.5,0.7,1.1,1,1.7c0.4,0.6,0.7,1.4,1,2.1c0.3,0.7,0.6,1.5,0.8,2.2
				c0.2,0.7,0.4,1.4,0.5,2c0.1,1.2,0.2,2,0.2,2s-0.3-0.8-0.6-1.9c-0.2-0.5-0.5-1.2-0.7-1.9c-0.3-0.7-0.6-1.4-0.9-2.1
				c-0.6-1.4-1.2-2.9-1.7-3.9C256.9,119.1,256.6,118.3,256.6,118.3z"/>
			<path class="st29" d="M204.6,143.4c0,0,0.3-0.2,1-0.4c0.6-0.2,1.5-0.6,2.6-0.9c0.6-0.2,1.2-0.3,1.8-0.4c0.6-0.1,1.3-0.2,2.1-0.3
				c0.7,0,1.5-0.2,2.2-0.2c0.8,0,1.5,0,2.3,0c0.8,0,1.5,0.1,2.3,0.2c0.8,0.1,1.5,0.3,2.2,0.4c0.7,0.1,1.4,0.4,2,0.6
				c0.3,0.1,0.6,0.2,0.9,0.3c0.3,0.1,0.6,0.2,0.8,0.4c0.5,0.2,1,0.4,1.4,0.7c0.4,0.2,0.8,0.4,1,0.6c0.6,0.3,0.9,0.5,0.9,0.5
				s-0.4-0.1-1-0.4c-0.3-0.1-0.7-0.3-1.1-0.5c-0.4-0.2-0.9-0.3-1.5-0.5c-0.3-0.1-0.5-0.2-0.8-0.3c-0.3-0.1-0.6-0.2-0.9-0.2
				c-0.6-0.2-1.3-0.4-2-0.5c-0.7-0.1-1.4-0.3-2.1-0.3c-0.7-0.1-1.5-0.2-2.2-0.2c-0.8-0.1-1.5-0.1-2.2,0c-0.7,0-1.5,0.1-2.2,0.1
				c-0.7,0.1-1.4,0.1-2,0.2c-0.6,0.1-1.3,0.2-1.8,0.3c-1.1,0.2-2,0.4-2.7,0.6C205,143.3,204.6,143.4,204.6,143.4z"/>
		</g>
		<path class="st30" d="M180.3,121.2c-1,1.6-1.8,3.3-2.4,5.2c0,0.1,0,0.1-0.1,0.2C178.9,123.5,180.3,121.2,180.3,121.2L180.3,121.2z
			"/>
		<path class="st31" d="M243,102.8c-10.5-4-22.6-7-34.9-6.1c0,0-9.7,0.2-18.7,1.8C197.1,102.3,217.2,110.2,243,102.8z"/>
		<path class="st31" d="M189.9,111.6l-19.7,5.9c0.9,2.1,2.1,4.2,3.6,6.2l6.6-2.4C184.1,115.1,189.9,111.6,189.9,111.6z"/>
		<path class="st31" d="M272.9,125.6l-26.8-16.2c0,0,12.4,16.6,6,25.1s-29,7.9-29,7.9s19.4,16.5,19.2,55.4
			c8.1-1.4,16.7-3.7,25.8-6.9c0.1-0.1,0.2-0.3,0.4-0.4c0.2-3.8,0.3-17.9-4.7-28.2c0,0-1.1-14.1-5-19.7c0,0,3-7,2.4-12.6l7,3.6
			C268.2,133.6,271.3,130.1,272.9,125.6z"/>
		<path class="st31" d="M181.7,141.2c0,0-3.7-0.8-4.3-2.4c0,0-14.6,18.9-15.9,45.5c0,0,1.6,1.2,4.6,2.9
			C166.9,177.3,170,152,181.7,141.2z"/>
		<path class="st26" d="M210.7,98.2c0,0-2.5,8.2,4.3,9.1c6.8,0.9,7.8-8.6,7.8-8.6L210.7,98.2z"/>
		<path class="st27" d="M210.7,98.2c0,0-2.5,8.2,4.3,9.1c6.8,0.9,7.8-8.6,7.8-8.6L210.7,98.2z"/>
		<path class="st32" d="M205.6,11.1c0,0-3.4-7-10.6-4.5c-7.2,2.5-6.2,10.2-6.2,10.2s-6.9-4.7-9.8,1.5c-2.9,6.2,2.1,7.9,2.1,7.9
			s-13.9,2.6-9.1,16c0,0-3.9,0.2-6.9,5.5c-3,5.3,3.5,12.3,6.7,12.4c0,0-6,9.6,3.8,14.2c0,0,0.1,7.1,10.5,5.9l66.2,8.3
			c0,0,1.4,3.3,6.2,2.8c4.8-0.5,6.1-5.6,6.1-5.6s7.2,0.5,7.1-9.1c0,0,5.3-1,4.2-8.1c0,0,9.5-0.1,6.4-13.5c0,0,7.2-8.7-4.2-17.5
			c0,0,5.5-9.1-8.1-12.5c0,0,3.4-5.5-1.7-14.4c-5.1-8.9-19.5-1.2-19.5-1.2s-1.8-7.7-9.6-7.8C231.4,1.6,230,7,230,7
			s-4.6-8.5-13.3-6.2C207.9,3.1,205.6,11.1,205.6,11.1z"/>
		<g class="st33">
			<path class="st34" d="M280.5,54.9c1.1,10.2-6.4,10.8-6.4,10.8c1.8,5.4-2.4,11-6.2,7.8c-3.8-3.2,1.1-7.8,1.1-7.8
				c-3.5,3-6.6-1-6.6-1c-3.8-6.2,5.2-11,5.2-11c-5.1-2.8-2.6-10.8-2.6-10.8s-3.9,6.6-11.8,4.9s-4.6-10.5-4.6-10.5s-4.8,8.6-14.9,8.6
				c-10.2,0-9.3-14.8-9.3-14.8s-0.7,6.6-7.9,7.1c-7.2,0.5-7.5-7.7-7.5-7.7s-0.5,6.1-6.4,8.5c-5.9,2.4-9.2-3.4-9.2-3.4
				c-2.8,15.1-15.8,11-15.8,11s6.5,5.1,5.1,10.8c-1.4,5.6-5.7,3.8-5.7,3.8s6.9,8.6-1.3,9c-5.8,0.3-3.9-10-3.9-10s-6,9.6,3.8,14.2
				c0,0,0.1,7.1,10.5,5.9l66.2,8.3c0,0,1.4,3.3,6.2,2.8c4.8-0.5,6.1-5.6,6.1-5.6s7.2,0.5,7.1-9.1c0,0,5.3-1,4.2-8.1
				c0,0,9.5-0.1,6.4-13.5c0,0,4.1-4.9,1.3-11.1v0C285.5,49.5,280.5,54.9,280.5,54.9z"/>
		</g>
		<path class="st35" d="M190.7,60.9c0,0-2.1-2.6-6.5-1c-4.3,1.6-3.1,9,2.8,9.7L190.7,60.9z"/>
		<path class="st35" d="M252.5,70.1c0,0,2.2-4.3,6.6-2.6c4.4,1.7,2.9,13.5-5.3,12.3L252.5,70.1z"/>
		<path class="st26" d="M189.8,47.6c0,0,0.6,10.5-1.7,16.3c-2.2,5.7-6.7,20.7,11.7,31.2c18.4,10.4,45.9,6.4,51.7-7.7
			c5.8-14.1,1.3-22.6,4.5-28.7c0,0-2.8-0.3-1.7-4.1c0,0-8.6,3.1-9.9-6.3c0,0-11.9,9-21.3-4.6c0,0-8.9,4.3-13.6-1.9
			c0,0-7.4,6.2-12.3-0.5C197.2,41.4,196,47.9,189.8,47.6z"/>
		<path class="st36" d="M227.1,89.6c0,0-2.9,5-9.3,5c-6.4,0.1-8.7-8.7-8.7-8.7s2.2,6.8,7.8,7.7C222.4,94.4,227.1,89.6,227.1,89.6
			L227.1,89.6z"/>
		<path class="st36" d="M224.1,87.2c0,0,1.2,3.9,5.5,2.2C229.6,89.4,226.1,90.7,224.1,87.2z"/>
		<path class="st36" d="M216,77.4c-0.3-0.9-0.1-2.2,1-2.6c0.7-0.2,1.2-0.2,1.8,0.1c-1.4-0.7-3.2-0.6-3.5,1.4
			c-0.3,1.9,1.5,4.1,3.5,4.4C217.4,79.9,216.3,78.5,216,77.4z"/>
		<path class="st37" d="M236.1,56.1c-3-0.7-4.1,1.3-5.8,3.3c-0.2,0.2,0,0.5,0.3,0.4c0.4-0.1,0.6-0.4,0.8-0.7c0.8-0.9,2.1-1.7,3.2-2
			c3.1-0.6,4.5,1.5,5.7,3.9c0,0.1,0.2,0,0.2-0.1C239.7,58.9,238.5,56.6,236.1,56.1z"/>
		<path class="st37" d="M204.7,51.2c-2.1,0-3.6,3.2-3.6,4.9c0,0.1,0.1,0.1,0.1,0c0.5-1.9,2.3-4.4,4.5-3.5c1.5,0.6,2.5,2.5,3.4,3.7
			c0.1,0.2,0.4,0,0.3-0.2C209,53.7,207.5,51.2,204.7,51.2z"/>
		<g class="st21">
			<path class="st38" d="M206.7,66.5c-0.2,2.2-1.1,3.9-2.1,3.9c-1-0.1-1.6-1.9-1.5-4.1c0.2-2.2,1.1-3.9,2.1-3.9
				C206.2,62.4,206.9,64.2,206.7,66.5z"/>
			<path class="st0" d="M204.9,64.6c-0.1,0.7-0.4,1.2-0.7,1.1c-0.3,0-0.4-0.6-0.3-1.3c0.1-0.7,0.4-1.2,0.7-1.1
				C204.8,63.4,205,64,204.9,64.6z"/>
		</g>
		<g class="st21">
			<path class="st38" d="M238.5,68.9c-0.2,2.2-1.1,4-2,3.9c-1-0.1-1.6-1.9-1.5-4.1c0.2-2.2,1.1-4,2-3.9
				C238,64.8,238.7,66.7,238.5,68.9z"/>
			<path class="st0" d="M236.6,67c-0.1,0.7-0.4,1.2-0.7,1.1c-0.3,0-0.4-0.6-0.3-1.3c0.1-0.7,0.4-1.2,0.7-1.1
				C236.6,65.8,236.7,66.4,236.6,67z"/>
		</g>
		<path class="st36" d="M257.7,72.8c-0.4,0.1-0.9,0.4-1.3,0.7c-0.4,0.3-0.8,0.8-1,1.3c-0.1,0.3,0.2,0.3,0.4,0.2
			c0.4-0.4,0.7-0.9,1.2-1.2c0.4-0.2,1.7-1.1,1.8-0.1c0,0,0.1,0,0.1,0C259.2,73.1,258.3,72.7,257.7,72.8z"/>
		<path class="st36" d="M232.1,77c2.6-2.5,5.4-4.1,9.2-3.1c0.4,0,0.8,0,1.2,0.1c0,0,0,0,0-0.1c-2.2-1.6-4.6-1.2-7-0.2
			c-1.9,0.8-2.9,2.1-3.9,3.7C231.7,77.2,231.9,77.1,232.1,77z"/>
		<path class="st36" d="M202.2,70c-1.2-0.4-2.4-0.3-3.5,0c0,0,0,0,0,0c0.3,0.1,0.5,0.1,0.8,0.2c0.6,0,1.3,0.1,1.9,0.2
			c2.5,0.4,3.9,2,5.2,4c0.1,0.2,0.3,0,0.3-0.2C206.2,71.8,204.5,70.7,202.2,70z"/>
		<path class="st39" d="M243.6,75c0.3,1.3-2,2.9-5.1,3.5c-3.1,0.6-5.9,0.1-6.1-1.2c-0.3-1.3,2-2.9,5.1-3.5
			C240.6,73.2,243.3,73.7,243.6,75z"/>
		<path class="st39" d="M206.1,76.1c-0.7,1.1-3.3,0.9-5.9-0.6c-2.6-1.5-4.2-3.6-3.5-4.8c0.7-1.1,3.3-0.9,5.9,0.6
			C205.2,72.8,206.8,74.9,206.1,76.1z"/>
		<path class="st40" d="M189.2,112.7c0,0-14.3,11.7-10.3,23.6c0,0,2,3.9,7.7,4.4C186.6,140.6,173.5,132.3,189.2,112.7z"/>
		<g class="st21">
			<path class="st1" d="M264.4,163.3c0,0,3.1-2.4,4.5-0.8c1.3,1.7-0.1,4.6-0.1,4.6s3.7,1.8,0.8,6.7c0,0,1.7,0.9,0.5,3.6
				c0,0,1.6,1,0.2,3c-1.4,2.1-4.1,2.9-4.8,1.9c-0.8-1,0.2-2.1,0.2-2.1s-2.4,0.1-0.6-3.3c0,0-2.2,0-2-1.4c0,0-2.7-0.4-1.3-3.7
				C263.2,168.6,264.8,165.2,264.4,163.3z"/>
			<g>
				<path class="st10" d="M268.8,167.2c0,0-0.2,0.6-0.6,1.5c-0.4,0.9-1,2-1.6,3.1c-0.3,0.5-0.7,1.1-1,1.5c-0.2,0.2-0.4,0.5-0.5,0.7
					c-0.2,0.2-0.4,0.4-0.5,0.6c-0.4,0.3-0.6,0.6-0.9,0.8c-0.2,0.2-0.3,0.3-0.3,0.3s0.1-0.1,0.4-0.2c0.3-0.1,0.6-0.3,1-0.6
					c0.4-0.3,0.8-0.7,1.2-1.2c0.4-0.5,0.8-1,1.1-1.6c0.3-0.6,0.6-1.1,0.9-1.7c0.2-0.6,0.4-1.1,0.6-1.6
					C268.7,167.8,268.8,167.2,268.8,167.2z"/>
				<path class="st10" d="M269.6,173.9c0,0-0.3,0.2-0.6,0.6c-0.4,0.4-0.9,0.8-1.4,1.2c-0.3,0.2-0.5,0.4-0.8,0.6
					c-0.3,0.2-0.5,0.3-0.7,0.4c-0.2,0.1-0.4,0.2-0.6,0.2c-0.1,0-0.2,0.1-0.2,0.1s0.1,0,0.2,0c0.2,0,0.4,0,0.7,0
					c0.3-0.1,0.6-0.1,0.9-0.3c0.3-0.1,0.6-0.4,0.9-0.6c0.3-0.2,0.5-0.5,0.8-0.7c0.2-0.2,0.4-0.5,0.5-0.7
					C269.5,174.2,269.6,173.9,269.6,173.9z"/>
				<path class="st10" d="M270.1,177.5c0,0-0.7,1.2-1.8,1.9c-0.5,0.4-1.2,0.6-1.7,0.7c-0.2,0.1-0.5,0.1-0.6,0.1
					c-0.2,0-0.2,0.1-0.2,0.1s0.1,0,0.2,0c0.2,0,0.4,0.1,0.6,0c0.3,0,0.6,0,0.9-0.1c0.3-0.1,0.7-0.2,1-0.4c0.6-0.4,1.1-1,1.3-1.5
					C270.1,177.8,270.1,177.5,270.1,177.5z"/>
			</g>
		</g>
		<g class="st21">
			<path class="st1" d="M168.5,154.8c0,0-2.5-3.1-4.2-1.8c-1.7,1.3-0.9,4.5-0.9,4.5s-4,0.9-2.3,6.3c0,0-1.9,0.5-1.4,3.4
				c0,0-1.8,0.6-0.9,2.9c0.9,2.4,3.3,3.8,4.3,2.9c1-0.8,0.2-2.1,0.2-2.1s2.3,0.6,1.3-3.1c0,0,2.2,0.5,2.3-0.9c0,0,2.7,0.2,2.1-3.3
				C168.5,160.2,167.7,156.5,168.5,154.8z"/>
			<g>
				<path class="st10" d="M163.4,157.5c0,0,0.1,0.6,0.3,1.6c0.2,0.9,0.5,2.2,0.9,3.4c0.2,0.6,0.4,1.2,0.7,1.7
					c0.1,0.3,0.2,0.5,0.4,0.8c0.1,0.2,0.2,0.5,0.4,0.7c0.3,0.4,0.5,0.7,0.7,0.9c0.2,0.2,0.3,0.4,0.3,0.4s-0.1-0.1-0.3-0.3
					c-0.2-0.2-0.5-0.5-0.8-0.8c-0.3-0.4-0.6-0.9-0.9-1.4c-0.3-0.5-0.5-1.2-0.7-1.8c-0.2-0.6-0.4-1.3-0.5-1.9
					c-0.1-0.6-0.2-1.2-0.2-1.7C163.3,158.2,163.4,157.5,163.4,157.5z"/>
				<path class="st10" d="M161.1,163.9c0,0,0.2,0.3,0.5,0.7c0.3,0.4,0.7,1,1.1,1.5c0.2,0.3,0.4,0.5,0.6,0.7c0.2,0.2,0.4,0.4,0.6,0.6
					c0.2,0.1,0.4,0.3,0.5,0.3c0.1,0.1,0.2,0.1,0.2,0.1s-0.1,0-0.2,0c-0.2,0-0.4-0.1-0.6-0.2c-0.2-0.1-0.5-0.3-0.8-0.5
					c-0.3-0.2-0.5-0.5-0.7-0.8c-0.2-0.3-0.4-0.6-0.6-0.9c-0.2-0.3-0.3-0.6-0.4-0.8C161.1,164.2,161.1,163.9,161.1,163.9z"/>
				<path class="st10" d="M159.7,167.2c0,0,0.4,1.4,1.3,2.3c0.4,0.5,1,0.8,1.5,1.1c0.2,0.1,0.4,0.2,0.6,0.3c0.1,0.1,0.2,0.1,0.2,0.1
					s-0.1,0-0.2,0c-0.2,0-0.4,0-0.6-0.1c-0.3-0.1-0.6-0.2-0.9-0.3c-0.3-0.2-0.6-0.4-0.9-0.7c-0.5-0.5-0.8-1.2-0.9-1.8
					C159.6,167.6,159.7,167.2,159.7,167.2z"/>
			</g>
		</g>
		<path class="st36" d="M185.5,63.8c-0.6-0.5-1.4-0.4-1.9,0.2c0,0.1,0,0.1,0.1,0.1c1.3-1.3,2.2,1.5,2.7,2.3c0.1,0.2,0.3,0,0.3-0.1
			C186.8,65.3,186.3,64.3,185.5,63.8z"/>
	</g>
</g>
</svg>
