<!-- Generator: Adobe Illustrator 22.1.0, SVG Export Plug-In  -->
<svg version="1.1"
	 xmlns="http://www.w3.org/2000/svg" xmlns:xlink="http://www.w3.org/1999/xlink" xmlns:a="http://ns.adobe.com/AdobeSVGViewerExtensions/3.0/"
	 x="0px" y="0px" width="409.4px" height="396.7px" viewBox="0 0 409.4 396.7" style="enable-background:new 0 0 409.4 396.7;"
	 xml:space="preserve">
<style type="text/css">
	.st0{display:none;}
	.st1{display:inline;}
	.st2{fill:#987A5F;}
	.st3{fill:#9E9E9E;}
	.st4{fill:#B7B7B7;}
	.st5{fill:#42728D;}
	.st6{fill:#2F1C17;}
	.st7{fill:#E2B229;}
	.st8{fill:#F5DA3C;}
	.st9{fill:#443230;}
	.st10{fill:#61ABA5;}
	.st11{fill:#D10024;}
	.st12{fill:#B60819;}
	.st13{fill:#477E96;}
</style>
<defs>
</defs>
<g>
	<g class="st0">
		<g class="st1">
			<g>
				<path class="st2" d="M34.3,243.5h-22c-0.7,0-1.4,0.6-1.4,1.4v5.3c0,0.7,0.6,1.4,1.4,1.4h22c0.7,0,1.4-0.6,1.4-1.4v-5.3
					C35.6,244.1,35,243.5,34.3,243.5z"/>
				<path class="st2" d="M74.6,243.5h-22c-0.7,0-1.4,0.6-1.4,1.4v5.3c0,0.7,0.6,1.4,1.4,1.4h22c0.7,0,1.4-0.6,1.4-1.4v-5.3
					C75.9,244.1,75.3,243.5,74.6,243.5z"/>
				<path class="st2" d="M114.9,243.5h-22c-0.7,0-1.4,0.6-1.4,1.4v5.3c0,0.7,0.6,1.4,1.4,1.4h22c0.7,0,1.4-0.6,1.4-1.4v-5.3
					C116.3,244.1,115.7,243.5,114.9,243.5z"/>
				<path class="st2" d="M155.2,243.5h-22c-0.7,0-1.4,0.6-1.4,1.4v5.3c0,0.7,0.6,1.4,1.4,1.4h22c0.7,0,1.4-0.6,1.4-1.4v-5.3
					C156.6,244.1,156,243.5,155.2,243.5z"/>
				<path class="st2" d="M195.5,243.5h-22c-0.7,0-1.4,0.6-1.4,1.4v5.3c0,0.7,0.6,1.4,1.4,1.4h22c0.7,0,1.4-0.6,1.4-1.4v-5.3
					C196.9,244.1,196.3,243.5,195.5,243.5z"/>
				<path class="st2" d="M235.9,243.5h-22c-0.7,0-1.4,0.6-1.4,1.4v5.3c0,0.7,0.6,1.4,1.4,1.4h22c0.7,0,1.4-0.6,1.4-1.4v-5.3
					C237.2,244.1,236.6,243.5,235.9,243.5z"/>
				<path class="st2" d="M276.2,243.5h-22c-0.7,0-1.4,0.6-1.4,1.4v5.3c0,0.7,0.6,1.4,1.4,1.4h22c0.7,0,1.4-0.6,1.4-1.4v-5.3
					C277.5,244.1,276.9,243.5,276.2,243.5z"/>
				<path class="st2" d="M316.5,243.5h-22c-0.7,0-1.4,0.6-1.4,1.4v5.3c0,0.7,0.6,1.4,1.4,1.4h22c0.7,0,1.4-0.6,1.4-1.4v-5.3
					C317.9,244.1,317.3,243.5,316.5,243.5z"/>
				<path class="st2" d="M356.8,243.5h-22c-0.7,0-1.4,0.6-1.4,1.4v5.3c0,0.7,0.6,1.4,1.4,1.4h22c0.7,0,1.4-0.6,1.4-1.4v-5.3
					C358.2,244.1,357.6,243.5,356.8,243.5z"/>
				<path class="st2" d="M397.2,243.5h-22c-0.7,0-1.4,0.6-1.4,1.4v5.3c0,0.7,0.6,1.4,1.4,1.4h22c0.7,0,1.4-0.6,1.4-1.4v-5.3
					C398.5,244.1,397.9,243.5,397.2,243.5z"/>
			</g>
			<g>
				<polygon class="st3" points="106.9,238.8 101.2,243.5 151.5,243.5 157.2,238.8 				"/>
				<polygon class="st3" points="0,238.8 0,243.5 88.8,243.5 94.5,238.8 				"/>
				<polygon class="st3" points="161.5,238.8 155.7,243.5 224,243.5 229.7,238.8 				"/>
				<polygon class="st4" points="94.5,238.8 88.8,243.5 101.2,243.5 106.9,238.8 				"/>
				<polygon class="st4" points="157.2,238.8 151.5,243.5 155.7,243.5 161.5,238.8 				"/>
				<polygon class="st3" points="409.4,238.8 254.5,238.8 248.8,243.5 409.4,243.5 				"/>
				<polygon class="st4" points="250.3,238.8 244.5,243.5 248.8,243.5 254.5,238.8 				"/>
				<polygon class="st4" points="229.7,238.8 224,243.5 236.4,243.5 242.1,238.8 				"/>
				<polygon class="st3" points="242.1,238.8 236.4,243.5 244.5,243.5 250.3,238.8 				"/>
			</g>
		</g>
		<g class="st1">
			<g>
				<path class="st2" d="M34.3,388.7h-22c-0.7,0-1.4,0.6-1.4,1.4v5.3c0,0.7,0.6,1.4,1.4,1.4h22c0.7,0,1.4-0.6,1.4-1.4v-5.3
					C35.6,389.3,35,388.7,34.3,388.7z"/>
				<path class="st2" d="M74.6,388.7h-22c-0.7,0-1.4,0.6-1.4,1.4v5.3c0,0.7,0.6,1.4,1.4,1.4h22c0.7,0,1.4-0.6,1.4-1.4v-5.3
					C75.9,389.3,75.3,388.7,74.6,388.7z"/>
				<path class="st2" d="M114.9,388.7h-22c-0.7,0-1.4,0.6-1.4,1.4v5.3c0,0.7,0.6,1.4,1.4,1.4h22c0.7,0,1.4-0.6,1.4-1.4v-5.3
					C116.3,389.3,115.7,388.7,114.9,388.7z"/>
				<path class="st2" d="M155.2,388.7h-22c-0.7,0-1.4,0.6-1.4,1.4v5.3c0,0.7,0.6,1.4,1.4,1.4h22c0.7,0,1.4-0.6,1.4-1.4v-5.3
					C156.6,389.3,156,388.7,155.2,388.7z"/>
				<path class="st2" d="M195.5,388.7h-22c-0.7,0-1.4,0.6-1.4,1.4v5.3c0,0.7,0.6,1.4,1.4,1.4h22c0.7,0,1.4-0.6,1.4-1.4v-5.3
					C196.9,389.3,196.3,388.7,195.5,388.7z"/>
				<path class="st2" d="M235.9,388.7h-22c-0.7,0-1.4,0.6-1.4,1.4v5.3c0,0.7,0.6,1.4,1.4,1.4h22c0.7,0,1.4-0.6,1.4-1.4v-5.3
					C237.2,389.3,236.6,388.7,235.9,388.7z"/>
				<path class="st2" d="M276.2,388.7h-22c-0.7,0-1.4,0.6-1.4,1.4v5.3c0,0.7,0.6,1.4,1.4,1.4h22c0.7,0,1.4-0.6,1.4-1.4v-5.3
					C277.5,389.3,276.9,388.7,276.2,388.7z"/>
				<path class="st2" d="M316.5,388.7h-22c-0.7,0-1.4,0.6-1.4,1.4v5.3c0,0.7,0.6,1.4,1.4,1.4h22c0.7,0,1.4-0.6,1.4-1.4v-5.3
					C317.9,389.3,317.3,388.7,316.5,388.7z"/>
				<path class="st2" d="M356.8,388.7h-22c-0.7,0-1.4,0.6-1.4,1.4v5.3c0,0.7,0.6,1.4,1.4,1.4h22c0.7,0,1.4-0.6,1.4-1.4v-5.3
					C358.2,389.3,357.6,388.7,356.8,388.7z"/>
				<path class="st2" d="M397.2,388.7h-22c-0.7,0-1.4,0.6-1.4,1.4v5.3c0,0.7,0.6,1.4,1.4,1.4h22c0.7,0,1.4-0.6,1.4-1.4v-5.3
					C398.5,389.3,397.9,388.7,397.2,388.7z"/>
			</g>
			<g>
				<polygon class="st3" points="106.9,384 101.2,388.7 151.5,388.7 157.2,384 				"/>
				<polygon class="st3" points="0,384 0,388.7 88.8,388.7 94.5,384 				"/>
				<polygon class="st3" points="161.5,384 155.7,388.7 224,388.7 229.7,384 				"/>
				<polygon class="st4" points="94.5,384 88.8,388.7 101.2,388.7 106.9,384 				"/>
				<polygon class="st4" points="157.2,384 151.5,388.7 155.7,388.7 161.5,384 				"/>
				<polygon class="st3" points="409.4,384 254.5,384 248.8,388.7 409.4,388.7 				"/>
				<polygon class="st4" points="250.3,384 244.5,388.7 248.8,388.7 254.5,384 				"/>
				<polygon class="st4" points="229.7,384 224,388.7 236.4,388.7 242.1,384 				"/>
				<polygon class="st3" points="242.1,384 236.4,388.7 244.5,388.7 250.3,384 				"/>
			</g>
		</g>
		<g class="st1">
			<g>
				<path class="st2" d="M34.3,98.2h-22c-0.7,0-1.4,0.6-1.4,1.4v5.3c0,0.7,0.6,1.4,1.4,1.4h22c0.7,0,1.4-0.6,1.4-1.4v-5.3
					C35.6,98.8,35,98.2,34.3,98.2z"/>
				<path class="st2" d="M74.6,98.2h-22c-0.7,0-1.4,0.6-1.4,1.4v5.3c0,0.7,0.6,1.4,1.4,1.4h22c0.7,0,1.4-0.6,1.4-1.4v-5.3
					C75.9,98.8,75.3,98.2,74.6,98.2z"/>
				<path class="st2" d="M114.9,98.2h-22c-0.7,0-1.4,0.6-1.4,1.4v5.3c0,0.7,0.6,1.4,1.4,1.4h22c0.7,0,1.4-0.6,1.4-1.4v-5.3
					C116.3,98.8,115.7,98.2,114.9,98.2z"/>
				<path class="st2" d="M155.2,98.2h-22c-0.7,0-1.4,0.6-1.4,1.4v5.3c0,0.7,0.6,1.4,1.4,1.4h22c0.7,0,1.4-0.6,1.4-1.4v-5.3
					C156.6,98.8,156,98.2,155.2,98.2z"/>
				<path class="st2" d="M195.5,98.2h-22c-0.7,0-1.4,0.6-1.4,1.4v5.3c0,0.7,0.6,1.4,1.4,1.4h22c0.7,0,1.4-0.6,1.4-1.4v-5.3
					C196.9,98.8,196.3,98.2,195.5,98.2z"/>
				<path class="st2" d="M235.9,98.2h-22c-0.7,0-1.4,0.6-1.4,1.4v5.3c0,0.7,0.6,1.4,1.4,1.4h22c0.7,0,1.4-0.6,1.4-1.4v-5.3
					C237.2,98.8,236.6,98.2,235.9,98.2z"/>
				<path class="st2" d="M276.2,98.2h-22c-0.7,0-1.4,0.6-1.4,1.4v5.3c0,0.7,0.6,1.4,1.4,1.4h22c0.7,0,1.4-0.6,1.4-1.4v-5.3
					C277.5,98.8,276.9,98.2,276.2,98.2z"/>
				<path class="st2" d="M316.5,98.2h-22c-0.7,0-1.4,0.6-1.4,1.4v5.3c0,0.7,0.6,1.4,1.4,1.4h22c0.7,0,1.4-0.6,1.4-1.4v-5.3
					C317.9,98.8,317.3,98.2,316.5,98.2z"/>
				<path class="st2" d="M356.8,98.2h-22c-0.7,0-1.4,0.6-1.4,1.4v5.3c0,0.7,0.6,1.4,1.4,1.4h22c0.7,0,1.4-0.6,1.4-1.4v-5.3
					C358.2,98.8,357.6,98.2,356.8,98.2z"/>
				<path class="st2" d="M397.2,98.2h-22c-0.7,0-1.4,0.6-1.4,1.4v5.3c0,0.7,0.6,1.4,1.4,1.4h22c0.7,0,1.4-0.6,1.4-1.4v-5.3
					C398.5,98.8,397.9,98.2,397.2,98.2z"/>
			</g>
			<g>
				<polygon class="st3" points="106.9,93.5 101.2,98.2 151.5,98.2 157.2,93.5 				"/>
				<polygon class="st3" points="0,93.5 0,98.2 88.8,98.2 94.5,93.5 				"/>
				<polygon class="st3" points="161.5,93.5 155.7,98.2 224,98.2 229.7,93.5 				"/>
				<polygon class="st4" points="94.5,93.5 88.8,98.2 101.2,98.2 106.9,93.5 				"/>
				<polygon class="st4" points="157.2,93.5 151.5,98.2 155.7,98.2 161.5,93.5 				"/>
				<polygon class="st3" points="409.4,93.5 254.5,93.5 248.8,98.2 409.4,98.2 				"/>
				<polygon class="st4" points="250.3,93.5 244.5,98.2 248.8,98.2 254.5,93.5 				"/>
				<polygon class="st4" points="229.7,93.5 224,98.2 236.4,98.2 242.1,93.5 				"/>
				<polygon class="st3" points="242.1,93.5 236.4,98.2 244.5,98.2 250.3,93.5 				"/>
			</g>
		</g>
	</g>
	<g>
		<g>
			<polygon class="st5" points="143.1,229.9 58.7,229.9 59.7,223.8 143.1,223.8 			"/>
			<path class="st6" d="M69.4,214.1H54.2c-6,0-11-4.9-11-11l0,0c0-6,4.9-11,11-11h15.2c6,0,11,4.9,11,11l0,0
				C80.4,209.2,75.5,214.1,69.4,214.1z"/>
			<polygon class="st7" points="47.4,223.8 58.7,182.5 147.9,182.5 147.9,223.8 			"/>
			<g>
				<polygon class="st8" points="147.9,182.5 58.7,182.5 53.2,202.6 147.9,202.6 				"/>
			</g>
			<g>
				<rect x="120" y="207.8" class="st9" width="3" height="31.3"/>
				
					<rect x="120" y="207.8" transform="matrix(6.123234e-17 -1 1 6.123234e-17 -101.9752 344.8905)" class="st9" width="3" height="31.3"/>
				
					<rect x="120" y="207.8" transform="matrix(0.7071 -0.7071 0.7071 0.7071 -122.4167 151.3255)" class="st9" width="3" height="31.3"/>
				
					<rect x="120" y="207.8" transform="matrix(-0.7071 -0.7071 0.7071 -0.7071 49.3504 467.3072)" class="st9" width="3" height="31.3"/>
				<path class="st6" d="M121.5,205.8c-9.7,0-17.6,7.9-17.6,17.6s7.9,17.6,17.6,17.6s17.6-7.9,17.6-17.6S131.2,205.8,121.5,205.8z
					 M121.5,235.4c-6.6,0-12-5.4-12-12s5.4-12,12-12c6.6,0,12,5.4,12,12S128.1,235.4,121.5,235.4z"/>
				<circle class="st7" cx="121.5" cy="223.4" r="4.5"/>
				<path class="st8" d="M121.4,221.8c0,0.7-0.6,1.4-1.4,1.4c-0.7,0-1.4-0.6-1.4-1.4c0-0.7,0.6-1.4,1.4-1.4
					C120.8,220.5,121.4,221.1,121.4,221.8z"/>
			</g>
			<g>
				<rect x="79.9" y="207.8" class="st9" width="3" height="31.3"/>
				
					<rect x="79.9" y="207.8" transform="matrix(6.123234e-17 -1 1 6.123234e-17 -142.0453 304.8203)" class="st9" width="3" height="31.3"/>
				
					<rect x="79.9" y="207.8" transform="matrix(0.7071 -0.7071 0.7071 0.7071 -134.153 122.9916)" class="st9" width="3" height="31.3"/>
				
					<rect x="79.9" y="207.8" transform="matrix(-0.7071 -0.7071 0.7071 -0.7071 -19.0537 438.9733)" class="st9" width="3" height="31.3"/>
				<path class="st6" d="M81.4,205.8c-9.7,0-17.6,7.9-17.6,17.6S71.7,241,81.4,241S99,233.1,99,223.4S91.1,205.8,81.4,205.8z
					 M81.4,235.4c-6.6,0-12-5.4-12-12s5.4-12,12-12s12,5.4,12,12S88,235.4,81.4,235.4z"/>
				<circle class="st7" cx="81.4" cy="223.4" r="4.5"/>
				<path class="st8" d="M81.3,221.8c0,0.7-0.6,1.4-1.4,1.4c-0.7,0-1.4-0.6-1.4-1.4c0-0.7,0.6-1.4,1.4-1.4
					C80.7,220.5,81.3,221.1,81.3,221.8z"/>
			</g>
			<polygon class="st6" points="52.9,223.8 41.5,239.5 57.2,239.5 59.7,223.8 			"/>
			
				<rect x="113.4" y="122.3" transform="matrix(6.123234e-17 -1 1 6.123234e-17 -33.2356 267.0591)" class="st5" width="7" height="55.8"/>
			<rect x="91.3" y="153.6" class="st10" width="7" height="28.9"/>
			<rect x="135.5" y="153.6" class="st10" width="7" height="28.9"/>
			<path class="st6" d="M144.4,135.6H89.5c-1.4,0-2.6,1.2-2.6,2.6v5.8c0,1.4,1.2,2.6,2.6,2.6h54.9c1.4,0,2.6-1.2,2.6-2.6v-5.8
				C147,136.8,145.8,135.6,144.4,135.6z"/>
			<rect x="65.1" y="175.8" class="st7" width="13.9" height="6.7"/>
			<path class="st6" d="M84.4,161.4H59.9c-1.2,0-2,1.2-1.6,2.3l5.5,14.2h16.7l5.5-14.2C86.4,162.6,85.6,161.4,84.4,161.4z"/>
			<path class="st6" d="M145.8,188.7H59.2c-3.4,0-6.2-2.8-6.2-6.2l0,0h99l0,0C152,185.9,149.2,188.7,145.8,188.7z"/>
		</g>
		<rect x="147.9" y="215.1" class="st6" width="15.6" height="5.3"/>
		<rect x="256.5" y="215.1" class="st6" width="15.6" height="5.3"/>
		<g>
			<rect x="272.2" y="182.5" class="st7" width="93" height="41.2"/>
			<rect x="272.2" y="182.5" class="st8" width="93" height="19.9"/>
			<rect x="276.5" y="223.8" class="st5" width="84.4" height="6.2"/>
			<g>
				<g>
					<rect x="337.3" y="207.8" class="st9" width="3" height="31.3"/>
					
						<rect x="337.3" y="207.8" transform="matrix(6.123234e-17 -1 1 6.123234e-17 115.3014 562.1672)" class="st9" width="3" height="31.3"/>
					
						<rect x="337.3" y="207.8" transform="matrix(0.7071 -0.7071 0.7071 0.7071 -58.7757 304.9741)" class="st9" width="3" height="31.3"/>
					
						<rect x="337.3" y="207.8" transform="matrix(-0.7071 -0.7071 0.7071 -0.7071 420.254 620.9472)" class="st9" width="3" height="31.3"/>
					<path class="st6" d="M338.7,205.8c-9.7,0-17.6,7.9-17.6,17.6S329,241,338.7,241c9.7,0,17.6-7.9,17.6-17.6
						S348.4,205.8,338.7,205.8z M338.7,235.4c-6.6,0-12-5.4-12-12s5.4-12,12-12c6.6,0,12,5.4,12,12S345.4,235.4,338.7,235.4z"/>
					<circle class="st7" cx="338.7" cy="223.4" r="4.5"/>
					<path class="st8" d="M338.7,221.8c0,0.7-0.6,1.4-1.4,1.4c-0.7,0-1.4-0.6-1.4-1.4c0-0.7,0.6-1.4,1.4-1.4
						C338.1,220.5,338.7,221.1,338.7,221.8z"/>
				</g>
				<g>
					<rect x="297.2" y="207.8" class="st9" width="3" height="31.3"/>
					
						<rect x="297.2" y="207.8" transform="matrix(6.123234e-17 -1 1 6.123234e-17 75.2312 522.0969)" class="st9" width="3" height="31.3"/>
					
						<rect x="297.2" y="207.8" transform="matrix(0.7071 -0.7071 0.7071 0.7071 -70.5129 276.6382)" class="st9" width="3" height="31.3"/>
					
						<rect x="297.2" y="207.8" transform="matrix(-0.7071 -0.7071 0.7071 -0.7071 351.8518 592.6123)" class="st9" width="3" height="31.3"/>
					<path class="st6" d="M298.7,205.8c-9.7,0-17.6,7.9-17.6,17.6S289,241,298.7,241c9.7,0,17.6-7.9,17.6-17.6
						S308.4,205.8,298.7,205.8z M298.7,235.4c-6.6,0-12-5.4-12-12s5.4-12,12-12c6.6,0,12,5.4,12,12S305.3,235.4,298.7,235.4z"/>
					<path class="st7" d="M303.2,223.4c0,2.5-2,4.5-4.5,4.5c-2.5,0-4.5-2-4.5-4.5s2-4.5,4.5-4.5
						C301.2,218.9,303.2,220.9,303.2,223.4z"/>
					<path class="st8" d="M298.6,221.8c0,0.7-0.6,1.4-1.4,1.4c-0.7,0-1.4-0.6-1.4-1.4c0-0.7,0.6-1.4,1.4-1.4
						C298,220.5,298.6,221.1,298.6,221.8z"/>
				</g>
			</g>
			<path class="st6" d="M361.8,188.7h-86.6c-3.4,0-6.2-2.8-6.2-6.2l0,0h99l0,0C368,185.9,365.2,188.7,361.8,188.7z"/>
		</g>
		<g>
			<rect x="163.5" y="182.5" class="st7" width="93" height="41.2"/>
			<rect x="163.5" y="182.5" class="st8" width="93" height="19.9"/>
			<g>
				
					<rect x="206.5" y="106.2" transform="matrix(6.123234e-17 -1 1 6.123234e-17 59.8819 360.1766)" class="st5" width="7" height="87.9"/>
				<rect x="168.3" y="153.6" class="st10" width="7" height="28.9"/>
				<g>
					<rect x="185.9" y="153.6" class="st10" width="7" height="28.9"/>
					<rect x="227.1" y="153.6" class="st10" width="7" height="28.9"/>
				</g>
				<rect x="244.7" y="153.6" class="st10" width="7" height="28.9"/>
				<path class="st6" d="M253.5,135.6h-87c-1.4,0-2.6,1.2-2.6,2.6v5.8c0,1.4,1.2,2.6,2.6,2.6h87c1.4,0,2.6-1.2,2.6-2.6v-5.8
					C256.2,136.8,255,135.6,253.5,135.6z"/>
			</g>
			<rect x="167.9" y="223.8" class="st5" width="84.4" height="6.2"/>
			<g>
				<g>
					<rect x="228.6" y="207.8" class="st9" width="3" height="31.3"/>
					
						<rect x="228.6" y="207.8" transform="matrix(6.123234e-17 -1 1 6.123234e-17 6.6316 453.4973)" class="st9" width="3" height="31.3"/>
					
						<rect x="228.6" y="207.8" transform="matrix(0.7071 -0.7071 0.7071 0.7071 -90.6065 228.1228)" class="st9" width="3" height="31.3"/>
					
						<rect x="228.6" y="207.8" transform="matrix(-0.7071 -0.7071 0.7071 -0.7071 234.7528 544.1038)" class="st9" width="3" height="31.3"/>
					<path class="st6" d="M230.1,205.8c-9.7,0-17.6,7.9-17.6,17.6s7.9,17.6,17.6,17.6c9.7,0,17.6-7.9,17.6-17.6
						S239.8,205.8,230.1,205.8z M230.1,235.4c-6.6,0-12-5.4-12-12s5.4-12,12-12c6.6,0,12,5.4,12,12S236.7,235.4,230.1,235.4z"/>
					<circle class="st7" cx="230.1" cy="223.4" r="4.5"/>
					<path class="st8" d="M230,221.8c0,0.7-0.6,1.4-1.4,1.4c-0.7,0-1.4-0.6-1.4-1.4c0-0.7,0.6-1.4,1.4-1.4
						C229.4,220.5,230,221.1,230,221.8z"/>
				</g>
				<g>
					<rect x="188.5" y="207.8" class="st9" width="3" height="31.3"/>
					
						<rect x="188.5" y="207.8" transform="matrix(6.123234e-17 -1 1 6.123234e-17 -33.4387 413.427)" class="st9" width="3" height="31.3"/>
					
						<rect x="188.5" y="207.8" transform="matrix(0.7071 -0.7071 0.7071 0.7071 -102.3428 199.7882)" class="st9" width="3" height="31.3"/>
					
						<rect x="188.5" y="207.8" transform="matrix(-0.7071 -0.7071 0.7071 -0.7071 166.3497 515.7699)" class="st9" width="3" height="31.3"/>
					<path class="st6" d="M190,205.8c-9.7,0-17.6,7.9-17.6,17.6S180.3,241,190,241s17.6-7.9,17.6-17.6S199.7,205.8,190,205.8z
						 M190,235.4c-6.6,0-12-5.4-12-12s5.4-12,12-12c6.6,0,12,5.4,12,12S196.6,235.4,190,235.4z"/>
					<circle class="st7" cx="190" cy="223.4" r="4.5"/>
					<path class="st8" d="M189.9,221.8c0,0.7-0.6,1.4-1.4,1.4c-0.7,0-1.4-0.6-1.4-1.4c0-0.7,0.6-1.4,1.4-1.4
						C189.3,220.5,189.9,221.1,189.9,221.8z"/>
				</g>
			</g>
			<path class="st6" d="M253.3,188.7h-86.6c-3.4,0-6.2-2.8-6.2-6.2l0,0h99l0,0C259.5,185.9,256.7,188.7,253.3,188.7z"/>
		</g>
	</g>
	<g class="st0">
		<g class="st1">
			<path class="st6" d="M152.8,0H90c-1.4,0-2.6,1.2-2.6,2.6v5.8c0,1.4,1.2,2.6,2.6,2.6h62.7c1.4,0,2.6-1.2,2.6-2.6V2.6
				C155.4,1.2,154.2,0,152.8,0z"/>
			<polygon class="st11" points="151.9,11 90.9,11 89,37.4 89,64.6 102.7,64.6 153.8,64.6 153.8,37.4 			"/>
			<path class="st12" d="M84.8,37.4H60.4c-7.5,0-8.6,6.1-8.6,13.6v0c0,7.5,1.1,13.6,8.6,13.6H89V37.4H84.8z"/>
			<path class="st10" d="M153.8,84.8H54.7c-1,0-1.7-1-1.4-1.9l5.5-18.3h95.1c1,0,1.8,0.8,1.8,1.8V83C155.5,84,154.7,84.8,153.8,84.8
				z"/>
			<g>
				<g>
					<rect x="132.3" y="62.7" class="st9" width="3" height="31.3"/>
					
						<rect x="132.3" y="62.7" transform="matrix(6.123234e-17 -1 1 6.123234e-17 55.452 212.0621)" class="st9" width="3" height="31.3"/>
					
						<rect x="132.3" y="62.7" transform="matrix(0.7071 -0.7071 0.7071 0.7071 -16.1934 117.5156)" class="st9" width="3" height="31.3"/>
					
						<rect x="132.3" y="62.7" transform="matrix(-0.7071 -0.7071 0.7071 -0.7071 172.9677 228.2556)" class="st9" width="3" height="31.3"/>
					<path class="st6" d="M133.8,60.7c-9.7,0-17.6,7.9-17.6,17.6s7.9,17.6,17.6,17.6s17.6-7.9,17.6-17.6S143.5,60.7,133.8,60.7z
						 M133.8,90.3c-6.6,0-12-5.4-12-12s5.4-12,12-12s12,5.4,12,12S140.4,90.3,133.8,90.3z"/>
					<circle class="st12" cx="133.8" cy="78.3" r="4.5"/>
					<path class="st11" d="M133.7,76.7c0,0.7-0.6,1.4-1.4,1.4c-0.7,0-1.4-0.6-1.4-1.4c0-0.7,0.6-1.4,1.4-1.4
						C133.1,75.3,133.7,75.9,133.7,76.7z"/>
				</g>
				<g>
					<rect x="92.2" y="62.7" class="st9" width="3" height="31.3"/>
					
						<rect x="92.2" y="62.7" transform="matrix(6.123234e-17 -1 1 6.123234e-17 15.3818 171.9919)" class="st9" width="3" height="31.3"/>
					
						<rect x="92.2" y="62.7" transform="matrix(0.7071 -0.7071 0.7071 0.7071 -27.9297 89.1816)" class="st9" width="3" height="31.3"/>
					
						<rect x="92.2" y="62.7" transform="matrix(-0.7071 -0.7071 0.7071 -0.7071 104.5635 199.9216)" class="st9" width="3" height="31.3"/>
					<path class="st6" d="M93.7,60.7c-9.7,0-17.6,7.9-17.6,17.6S84,95.9,93.7,95.9s17.6-7.9,17.6-17.6S103.4,60.7,93.7,60.7z
						 M93.7,90.3c-6.6,0-12-5.4-12-12s5.4-12,12-12s12,5.4,12,12S100.3,90.3,93.7,90.3z"/>
					<circle class="st12" cx="93.7" cy="78.3" r="4.5"/>
					<path class="st11" d="M93.6,76.7c0,0.7-0.6,1.4-1.4,1.4c-0.7,0-1.4-0.6-1.4-1.4c0-0.7,0.6-1.4,1.4-1.4
						C93,75.3,93.6,75.9,93.6,76.7z"/>
				</g>
			</g>
			<path class="st6" d="M61.2,15.5H76c0.1,0,0.1,0,0.1,0.1V22c0,0.1,0,0.1-0.1,0.1H61.2c-0.1,0-0.1,0-0.1-0.1L61.2,15.5
				C61.1,15.5,61.2,15.5,61.2,15.5z"/>
			<path class="st6" d="M64.5,22.1h8.2c0.1,0,0.1,0.1,0.1,0.1v15.1c0,0.1-0.1,0.1-0.1,0.1h-8.2c-0.1,0-0.1-0.1-0.1-0.1V22.2
				C64.4,22.2,64.4,22.1,64.5,22.1z"/>
			<rect x="75.6" y="29.5" class="st6" width="4.3" height="7.9"/>
			<g>
				<circle class="st6" cx="63.6" cy="87.7" r="8.2"/>
				<circle class="st10" cx="63.6" cy="87.7" r="3.8"/>
				<path class="st13" d="M61.2,86.8c0-0.8,0.7-1.5,1.5-1.5c0.8,0,1.5,0.7,1.5,1.5s-0.7,1.5-1.5,1.5C61.9,88.3,61.2,87.6,61.2,86.8z
					"/>
			</g>
			<g>
				<polygon class="st10" points="126.4,18.8 103.7,37.4 110.8,37.4 133.5,18.8 				"/>
				<polygon class="st13" points="120.3,18.8 97.7,37.4 103.7,37.4 126.4,18.8 				"/>
				<polygon class="st10" points="97.6,18.8 97.6,37.4 97.7,37.4 120.3,18.8 				"/>
				<polygon class="st13" points="145.2,21.4 125.7,37.4 145.2,37.4 				"/>
				<polygon class="st13" points="133.5,18.8 110.8,37.4 113.2,37.4 135.9,18.8 				"/>
				<polygon class="st10" points="145.2,18.8 135.9,18.8 113.2,37.4 125.7,37.4 145.2,21.4 				"/>
			</g>
		</g>
		<g class="st1">
			<polygon class="st11" points="253,11 172.9,11 171,37.4 171,64.6 203.9,64.6 254.9,64.6 254.9,37.4 			"/>
			<path class="st6" d="M253.9,0H172c-1.4,0-2.6,1.2-2.6,2.6v5.8c0,1.4,1.2,2.6,2.6,2.6h81.9c1.4,0,2.6-1.2,2.6-2.6V2.6
				C256.5,1.2,255.4,0,253.9,0z"/>
			<path class="st10" d="M256.6,66.3c0-1-0.8-1.8-1.8-1.8h-3.8h-76.2h-3.8c-1,0-1.8,0.8-1.8,1.8V83c0,0,0,0.1,0,0.1
				c-0.1,0.9,0.6,1.6,1.5,1.6h0.3h83.7h0.3c0.9,0,1.6-0.8,1.5-1.6c0,0,0-0.1,0-0.1V66.3z"/>
			<g>
				<g>
					<rect x="231.5" y="62.7" class="st9" width="3" height="31.3"/>
					
						<rect x="231.5" y="62.7" transform="matrix(6.123234e-17 -1 1 6.123234e-17 154.702 311.3121)" class="st9" width="3" height="31.3"/>
					
						<rect x="231.5" y="62.7" transform="matrix(0.7071 -0.7071 0.7071 0.7071 12.8762 187.6959)" class="st9" width="3" height="31.3"/>
					
						<rect x="231.5" y="62.7" transform="matrix(-0.7071 -0.7071 0.7071 -0.7071 342.398 298.4359)" class="st9" width="3" height="31.3"/>
					<path class="st6" d="M233,60.7c-9.7,0-17.6,7.9-17.6,17.6s7.9,17.6,17.6,17.6c9.7,0,17.6-7.9,17.6-17.6S242.7,60.7,233,60.7z
						 M233,90.3c-6.6,0-12-5.4-12-12s5.4-12,12-12s12,5.4,12,12S239.6,90.3,233,90.3z"/>
					<circle class="st12" cx="233" cy="78.3" r="4.5"/>
					<path class="st11" d="M232.9,76.7c0,0.7-0.6,1.4-1.4,1.4c-0.7,0-1.4-0.6-1.4-1.4c0-0.7,0.6-1.4,1.4-1.4
						C232.3,75.3,232.9,75.9,232.9,76.7z"/>
				</g>
				<g>
					<rect x="191.5" y="62.7" class="st9" width="3" height="31.3"/>
					
						<rect x="191.5" y="62.7" transform="matrix(6.123234e-17 -1 1 6.123234e-17 114.6318 271.2419)" class="st9" width="3" height="31.3"/>
					
						<rect x="191.5" y="62.7" transform="matrix(0.7071 -0.7071 0.7071 0.7071 1.1399 159.362)" class="st9" width="3" height="31.3"/>
					
						<rect x="191.5" y="62.7" transform="matrix(-0.7071 -0.7071 0.7071 -0.7071 273.9939 270.102)" class="st9" width="3" height="31.3"/>
					<path class="st6" d="M192.9,60.7c-9.7,0-17.6,7.9-17.6,17.6s7.9,17.6,17.6,17.6s17.6-7.9,17.6-17.6S202.7,60.7,192.9,60.7z
						 M192.9,90.3c-6.6,0-12-5.4-12-12s5.4-12,12-12s12,5.4,12,12S199.6,90.3,192.9,90.3z"/>
					<circle class="st12" cx="192.9" cy="78.3" r="4.5"/>
					<path class="st11" d="M192.9,76.7c0,0.7-0.6,1.4-1.4,1.4c-0.7,0-1.4-0.6-1.4-1.4c0-0.7,0.6-1.4,1.4-1.4
						C192.3,75.3,192.9,75.9,192.9,76.7z"/>
				</g>
			</g>
			<g>
				<polygon class="st10" points="206.2,18.8 183.6,37.4 190.5,37.4 213.1,18.8 				"/>
				<polygon class="st13" points="213.1,18.8 190.5,37.4 193.4,37.4 216,18.8 				"/>
				<polygon class="st10" points="179.6,18.8 179.6,32.3 196.1,18.8 				"/>
				<polygon class="st13" points="196.1,18.8 179.6,32.3 179.6,37.4 183.6,37.4 206.2,18.8 				"/>
				<polygon class="st10" points="212.9,37.4 246.3,37.4 246.3,18.8 235.6,18.8 				"/>
				<polygon class="st13" points="232.2,18.8 209.6,37.4 212.9,37.4 235.6,18.8 				"/>
				<polygon class="st10" points="216,18.8 193.4,37.4 209.6,37.4 232.2,18.8 				"/>
			</g>
			<rect x="155.5" y="67.6" class="st9" width="13.8" height="7.1"/>
		</g>
		<g class="st1">
			<polygon class="st11" points="354.1,11 274,11 272.1,37.4 272.1,64.6 304.9,64.6 356,64.6 356,37.4 			"/>
			<path class="st6" d="M355,0h-81.9c-1.4,0-2.6,1.2-2.6,2.6v5.8c0,1.4,1.2,2.6,2.6,2.6H355c1.4,0,2.6-1.2,2.6-2.6V2.6
				C357.6,1.2,356.4,0,355,0z"/>
			<path class="st10" d="M357.6,66.3c0-1-0.8-1.8-1.8-1.8h-3.8h-76.2h-3.8c-1,0-1.8,0.8-1.8,1.8V83c0,0,0,0.1,0,0.1
				c-0.1,0.9,0.6,1.6,1.5,1.6h0.3h83.7h0.3c0.9,0,1.6-0.8,1.5-1.6c0,0,0-0.1,0-0.1V66.3z"/>
			<g>
				<g>
					<rect x="332.6" y="62.7" class="st9" width="3" height="31.3"/>
					
						<rect x="332.6" y="62.7" transform="matrix(6.123234e-17 -1 1 6.123234e-17 255.7592 412.3694)" class="st9" width="3" height="31.3"/>
					
						<rect x="332.6" y="62.7" transform="matrix(0.7071 -0.7071 0.7071 0.7071 42.4752 259.1541)" class="st9" width="3" height="31.3"/>
					
						<rect x="332.6" y="62.7" transform="matrix(-0.7071 -0.7071 0.7071 -0.7071 514.9134 369.8941)" class="st9" width="3" height="31.3"/>
					<path class="st6" d="M334.1,60.7c-9.7,0-17.6,7.9-17.6,17.6s7.9,17.6,17.6,17.6c9.7,0,17.6-7.9,17.6-17.6
						S343.8,60.7,334.1,60.7z M334.1,90.3c-6.6,0-12-5.4-12-12s5.4-12,12-12c6.6,0,12,5.4,12,12S340.7,90.3,334.1,90.3z"/>
					<circle class="st12" cx="334.1" cy="78.3" r="4.5"/>
					<path class="st11" d="M334,76.7c0,0.7-0.6,1.4-1.4,1.4c-0.7,0-1.4-0.6-1.4-1.4c0-0.7,0.6-1.4,1.4-1.4
						C333.4,75.3,334,75.9,334,76.7z"/>
				</g>
				<g>
					<rect x="292.5" y="62.7" class="st9" width="3" height="31.3"/>
					
						<rect x="292.5" y="62.7" transform="matrix(6.123234e-17 -1 1 6.123234e-17 215.689 372.2991)" class="st9" width="3" height="31.3"/>
					
						<rect x="292.5" y="62.7" transform="matrix(0.7071 -0.7071 0.7071 0.7071 30.7389 230.8202)" class="st9" width="3" height="31.3"/>
					
						<rect x="292.5" y="62.7" transform="matrix(-0.7071 -0.7071 0.7071 -0.7071 446.5093 341.5602)" class="st9" width="3" height="31.3"/>
					<path class="st6" d="M294,60.7c-9.7,0-17.6,7.9-17.6,17.6s7.9,17.6,17.6,17.6c9.7,0,17.6-7.9,17.6-17.6S303.7,60.7,294,60.7z
						 M294,90.3c-6.6,0-12-5.4-12-12s5.4-12,12-12c6.6,0,12,5.4,12,12S300.6,90.3,294,90.3z"/>
					<circle class="st12" cx="294" cy="78.3" r="4.5"/>
					<path class="st11" d="M293.9,76.7c0,0.7-0.6,1.4-1.4,1.4c-0.7,0-1.4-0.6-1.4-1.4c0-0.7,0.6-1.4,1.4-1.4
						C293.3,75.3,293.9,75.9,293.9,76.7z"/>
				</g>
			</g>
			<g>
				<polygon class="st10" points="307.3,18.8 284.6,37.4 291.5,37.4 314.2,18.8 				"/>
				<polygon class="st13" points="314.2,18.8 291.5,37.4 294.4,37.4 317.1,18.8 				"/>
				<polygon class="st10" points="280.7,18.8 280.7,32.3 297.2,18.8 				"/>
				<polygon class="st13" points="297.2,18.8 280.7,32.3 280.7,37.4 284.6,37.4 307.3,18.8 				"/>
				<polygon class="st10" points="313.9,37.4 347.4,37.4 347.4,18.8 336.6,18.8 				"/>
				<polygon class="st13" points="333.3,18.8 310.6,37.4 313.9,37.4 336.6,18.8 				"/>
				<polygon class="st10" points="317.1,18.8 294.4,37.4 310.6,37.4 333.3,18.8 				"/>
			</g>
			<rect x="256.6" y="67.6" class="st9" width="13.8" height="7.1"/>
		</g>
	</g>
	<g class="st0">
		<g class="st1">
			<path class="st11" d="M115.5,329.6H44.7c-10.9,0-19.8,8.9-19.8,19.8l0,0c0,10.9,8.9,19.8,19.8,19.8h70.8V329.6z"/>
			<rect x="37.2" y="359.2" class="st12" width="105.8" height="17.7"/>
			<g>
				<g>
					
						<ellipse transform="matrix(0.1606 -0.987 0.987 0.1606 -330.532 365.549)" class="st9" cx="49.6" cy="377.1" rx="7.7" ry="7.7"/>
					
						<rect x="48.9" y="369.3" transform="matrix(0.9665 -0.2568 0.2568 0.9665 -95.1732 25.3947)" class="st12" width="1.5" height="15.7"/>
					
						<rect x="48.9" y="369.3" transform="matrix(0.3189 -0.9478 0.9478 0.3189 -323.5951 303.8879)" class="st12" width="1.5" height="15.7"/>
					
						<rect x="48.9" y="369.3" transform="matrix(-0.7071 -0.7071 0.7071 -0.7071 -181.8995 678.8524)" class="st12" width="1.5" height="15.7"/>
					<path class="st6" d="M49.6,368.3c-4.9,0-8.8,4-8.8,8.8c0,4.9,4,8.8,8.8,8.8s8.8-4,8.8-8.8C58.5,372.2,54.5,368.3,49.6,368.3z
						 M49.6,384.3c-4,0-7.2-3.2-7.2-7.2c0-4,3.2-7.2,7.2-7.2c4,0,7.2,3.2,7.2,7.2C56.8,381.1,53.6,384.3,49.6,384.3z"/>
					<circle class="st6" cx="49.6" cy="377.1" r="2.3"/>
					<circle class="st9" cx="48.9" cy="376.3" r="0.7"/>
				</g>
				<g>
					
						<ellipse transform="matrix(0.7071 -0.7071 0.7071 0.7071 -245.7321 160.9479)" class="st9" cx="71.4" cy="377.1" rx="7.7" ry="7.7"/>
					
						<rect x="70.7" y="369.3" transform="matrix(0.9665 -0.2568 0.2568 0.9665 -94.4431 30.9852)" class="st12" width="1.5" height="15.7"/>
					
						<rect x="70.7" y="369.3" transform="matrix(0.319 -0.9478 0.9478 0.319 -308.7646 324.4969)" class="st12" width="1.5" height="15.7"/>
					
						<rect x="70.7" y="369.3" transform="matrix(-0.7071 -0.7071 0.7071 -0.7071 -144.7357 694.2461)" class="st12" width="1.5" height="15.7"/>
					<path class="st6" d="M71.4,368.3c-4.9,0-8.8,4-8.8,8.8c0,4.9,4,8.8,8.8,8.8s8.8-4,8.8-8.8C80.2,372.2,76.3,368.3,71.4,368.3z
						 M71.4,384.3c-4,0-7.2-3.2-7.2-7.2c0-4,3.2-7.2,7.2-7.2c4,0,7.2,3.2,7.2,7.2C78.6,381.1,75.4,384.3,71.4,384.3z"/>
					<circle class="st6" cx="71.4" cy="377.1" r="2.3"/>
					<circle class="st9" cx="70.7" cy="376.3" r="0.7"/>
				</g>
				<g>
					
						<ellipse transform="matrix(0.2305 -0.9731 0.9731 0.2305 -283.144 396.1404)" class="st9" cx="108.9" cy="377.1" rx="7.7" ry="7.7"/>
					
						<rect x="108.2" y="369.3" transform="matrix(0.9665 -0.2568 0.2568 0.9665 -93.186 40.6119)" class="st12" width="1.5" height="15.7"/>
					
						<rect x="108.2" y="369.3" transform="matrix(0.319 -0.9478 0.9478 0.319 -283.2347 360.0262)" class="st12" width="1.5" height="15.7"/>
					
						<rect x="108.2" y="369.3" transform="matrix(-0.7071 -0.7071 0.7071 -0.7071 -80.7567 720.7448)" class="st12" width="1.5" height="15.7"/>
					<path class="st6" d="M108.9,368.3c-4.9,0-8.8,4-8.8,8.8c0,4.9,4,8.8,8.8,8.8c4.9,0,8.8-4,8.8-8.8
						C117.7,372.2,113.8,368.3,108.9,368.3z M108.9,384.3c-4,0-7.2-3.2-7.2-7.2c0-4,3.2-7.2,7.2-7.2c4,0,7.2,3.2,7.2,7.2
						C116.1,381.1,112.9,384.3,108.9,384.3z"/>
					<path class="st6" d="M111.2,377.1c0,1.3-1,2.3-2.3,2.3c-1.3,0-2.3-1-2.3-2.3c0-1.3,1-2.3,2.3-2.3
						C110.2,374.8,111.2,375.8,111.2,377.1z"/>
					<circle class="st9" cx="108.2" cy="376.3" r="0.7"/>
				</g>
				<g>
					
						<ellipse transform="matrix(0.2305 -0.9731 0.9731 0.2305 -266.3924 417.3241)" class="st9" cx="130.7" cy="377.1" rx="7.7" ry="7.7"/>
					
						<rect x="129.9" y="369.3" transform="matrix(0.9665 -0.2568 0.2568 0.9665 -92.4559 46.2024)" class="st12" width="1.5" height="15.7"/>
					
						<rect x="129.9" y="369.3" transform="matrix(0.319 -0.9478 0.9478 0.319 -268.4089 380.6589)" class="st12" width="1.5" height="15.7"/>
					
						<rect x="129.9" y="369.3" transform="matrix(-0.7071 -0.7071 0.7071 -0.7071 -43.5937 736.1393)" class="st12" width="1.5" height="15.7"/>
					<path class="st6" d="M130.7,368.3c-4.9,0-8.8,4-8.8,8.8c0,4.9,4,8.8,8.8,8.8c4.9,0,8.8-4,8.8-8.8
						C139.5,372.2,135.5,368.3,130.7,368.3z M130.7,384.3c-4,0-7.2-3.2-7.2-7.2c0-4,3.2-7.2,7.2-7.2c4,0,7.2,3.2,7.2,7.2
						C137.8,381.1,134.6,384.3,130.7,384.3z"/>
					<path class="st6" d="M132.9,377.1c0,1.3-1,2.3-2.3,2.3c-1.3,0-2.3-1-2.3-2.3c0-1.3,1-2.3,2.3-2.3
						C131.9,374.8,132.9,375.8,132.9,377.1z"/>
					<circle class="st9" cx="130" cy="376.3" r="0.7"/>
				</g>
			</g>
			<path class="st6" d="M41.9,348.2l-17,37.7h4.2h10.1l0.8-13.3c0.4-7.5,6.7-13.4,14.2-13.4h88.8v-11H41.9z"/>
			<polygon class="st11" points="72.8,343.1 143,343.1 143,298.1 95.9,298.1 			"/>
			<g>
				<polygon class="st13" points="120.5,306.1 88.2,332.6 86.9,335.1 97.3,335.1 132.7,306.1 				"/>
				<polygon class="st10" points="101.8,306.1 88.2,332.6 120.5,306.1 				"/>
				<polygon class="st10" points="135,306.1 132.7,306.1 97.3,335.1 110.3,335.1 135,314.8 				"/>
				<polygon class="st10" points="135,318.4 114.7,335.1 135,335.1 				"/>
				<polygon class="st13" points="135,314.8 110.3,335.1 114.7,335.1 135,318.4 				"/>
			</g>
			<path class="st6" d="M97.4,291.8h44.7c2.2,0,3.9,1.8,3.9,3.9v2.3H93.5v-2.3C93.5,293.6,95.2,291.8,97.4,291.8z"/>
			<path class="st12" d="M40.8,343.1l-9.2,21.1c0.7,0.7,1.5,1.3,2.3,1.8l8-17.7h96.8v-5.1H40.8z"/>
			<rect x="49.6" y="319.6" class="st12" width="7.7" height="10"/>
			<rect x="48.6" y="326.4" class="st6" width="9.8" height="3.2"/>
			<polygon class="st6" points="60.6,306.4 53.5,306.4 46.4,306.4 44.4,311.3 49.6,319.6 53.5,319.6 57.3,319.6 62.6,311.3 			"/>
		</g>
		<g class="st1">
			<rect x="143" y="362.9" class="st6" width="13.9" height="8.1"/>
			<rect x="161.2" y="343.1" class="st12" width="97" height="5.1"/>
			<rect x="156.7" y="359.2" class="st12" width="105.8" height="17.7"/>
			<g>
				<g>
					
						<ellipse transform="matrix(0.2305 -0.9731 0.9731 0.2305 -236.8314 454.7063)" class="st9" cx="169.1" cy="377.1" rx="7.7" ry="7.7"/>
					
						<rect x="168.3" y="369.3" transform="matrix(0.9665 -0.2568 0.2568 0.9665 -91.1676 56.0677)" class="st12" width="1.5" height="15.7"/>
					
						<rect x="168.3" y="369.3" transform="matrix(0.319 -0.9478 0.9478 0.319 -242.2463 417.0689)" class="st12" width="1.5" height="15.7"/>
					
						<rect x="168.3" y="369.3" transform="matrix(-0.7071 -0.7071 0.7071 -0.7071 22.005 763.3124)" class="st12" width="1.5" height="15.7"/>
					<path class="st6" d="M169.1,368.3c-4.9,0-8.8,4-8.8,8.8c0,4.9,4,8.8,8.8,8.8c4.9,0,8.8-4,8.8-8.8
						C177.9,372.2,174,368.3,169.1,368.3z M169.1,384.3c-4,0-7.2-3.2-7.2-7.2c0-4,3.2-7.2,7.2-7.2c4,0,7.2,3.2,7.2,7.2
						C176.3,381.1,173.1,384.3,169.1,384.3z"/>
					<path class="st6" d="M171.4,377.1c0,1.3-1,2.3-2.3,2.3c-1.3,0-2.3-1-2.3-2.3c0-1.3,1-2.3,2.3-2.3
						C170.3,374.8,171.4,375.8,171.4,377.1z"/>
					<circle class="st9" cx="168.4" cy="376.3" r="0.7"/>
				</g>
				<g>
					
						<ellipse transform="matrix(0.2305 -0.9731 0.9731 0.2305 -220.0797 475.89)" class="st9" cx="190.9" cy="377.1" rx="7.7" ry="7.7"/>
					
						<rect x="190.1" y="369.3" transform="matrix(0.9665 -0.2568 0.2568 0.9665 -90.4376 61.6582)" class="st12" width="1.5" height="15.7"/>
					
						<rect x="190.1" y="369.3" transform="matrix(0.319 -0.9478 0.9478 0.319 -227.4204 437.7017)" class="st12" width="1.5" height="15.7"/>
					
						<rect x="190.1" y="369.3" transform="matrix(-0.7071 -0.7071 0.7071 -0.7071 59.1687 778.7061)" class="st12" width="1.5" height="15.7"/>
					<path class="st6" d="M190.9,368.3c-4.9,0-8.8,4-8.8,8.8c0,4.9,4,8.8,8.8,8.8c4.9,0,8.8-4,8.8-8.8
						C199.7,372.2,195.7,368.3,190.9,368.3z M190.9,384.3c-4,0-7.2-3.2-7.2-7.2c0-4,3.2-7.2,7.2-7.2c4,0,7.2,3.2,7.2,7.2
						C198,381.1,194.8,384.3,190.9,384.3z"/>
					<path class="st6" d="M193.1,377.1c0,1.3-1,2.3-2.3,2.3c-1.3,0-2.3-1-2.3-2.3c0-1.3,1-2.3,2.3-2.3
						C192.1,374.8,193.1,375.8,193.1,377.1z"/>
					<circle class="st9" cx="190.1" cy="376.3" r="0.7"/>
				</g>
				<g>
					
						<ellipse transform="matrix(0.1553 -0.9879 0.9879 0.1553 -179.6447 544.0974)" class="st9" cx="228.3" cy="377.1" rx="7.7" ry="7.7"/>
					
						<rect x="227.6" y="369.3" transform="matrix(0.9665 -0.2568 0.2568 0.9665 -89.1804 71.2849)" class="st12" width="1.5" height="15.7"/>
					
						<rect x="227.6" y="369.3" transform="matrix(0.319 -0.9478 0.9478 0.319 -201.8905 473.231)" class="st12" width="1.5" height="15.7"/>
					
						<rect x="227.6" y="369.3" transform="matrix(-0.7071 -0.7071 0.7071 -0.7071 123.1641 805.2139)" class="st12" width="1.5" height="15.7"/>
					<path class="st6" d="M228.3,368.3c-4.9,0-8.8,4-8.8,8.8c0,4.9,4,8.8,8.8,8.8c4.9,0,8.8-4,8.8-8.8
						C237.2,372.2,233.2,368.3,228.3,368.3z M228.3,384.3c-4,0-7.2-3.2-7.2-7.2c0-4,3.2-7.2,7.2-7.2c4,0,7.2,3.2,7.2,7.2
						C235.5,381.1,232.3,384.3,228.3,384.3z"/>
					<circle class="st6" cx="228.3" cy="377.1" r="2.3"/>
					<path class="st9" d="M228.3,376.3c0,0.4-0.3,0.7-0.7,0.7c-0.4,0-0.7-0.3-0.7-0.7c0-0.4,0.3-0.7,0.7-0.7
						C228,375.6,228.3,375.9,228.3,376.3z"/>
				</g>
				<g>
					
						<ellipse transform="matrix(0.1551 -0.9879 0.9879 0.1551 -161.2076 565.7095)" class="st9" cx="250.1" cy="377.1" rx="7.7" ry="7.7"/>
					
						<rect x="249.4" y="369.3" transform="matrix(0.9665 -0.2568 0.2568 0.9665 -88.4504 76.8754)" class="st12" width="1.5" height="15.7"/>
					
						<rect x="249.4" y="369.3" transform="matrix(0.319 -0.9478 0.9478 0.319 -187.0647 493.8638)" class="st12" width="1.5" height="15.7"/>
					
						<rect x="249.4" y="369.3" transform="matrix(-0.7071 -0.7071 0.7071 -0.7071 160.3278 820.6075)" class="st12" width="1.5" height="15.7"/>
					<path class="st6" d="M250.1,368.3c-4.9,0-8.8,4-8.8,8.8c0,4.9,4,8.8,8.8,8.8s8.8-4,8.8-8.8C258.9,372.2,255,368.3,250.1,368.3z
						 M250.1,384.3c-4,0-7.2-3.2-7.2-7.2c0-4,3.2-7.2,7.2-7.2c4,0,7.2,3.2,7.2,7.2C257.3,381.1,254.1,384.3,250.1,384.3z"/>
					<circle class="st6" cx="250.1" cy="377.1" r="2.3"/>
					<path class="st9" d="M250.1,376.3c0,0.4-0.3,0.7-0.7,0.7c-0.4,0-0.7-0.3-0.7-0.7c0-0.4,0.3-0.7,0.7-0.7
						C249.8,375.6,250.1,375.9,250.1,376.3z"/>
				</g>
			</g>
			<polygon class="st11" points="156.8,343.1 262.4,343.1 262.4,298.1 156.6,298.1 			"/>
			<path class="st6" d="M158,291.8h103c2.2,0,3.9,1.8,3.9,3.9v2.3H154.1v-2.3C154.1,293.6,155.8,291.8,158,291.8z"/>
			<g>
				<rect x="156.7" y="348.2" class="st6" width="105.8" height="11"/>
			</g>
			<g>
				<g>
					<path class="st10" d="M175.5,333.6l15.6-12.8c0-0.1,0-0.1,0-0.2c0-2.9-1-5.6-2.6-7.8l-20.4,16.8
						C170.1,331.6,172.6,333.1,175.5,333.6z"/>
					<path class="st13" d="M177.9,333.8c7.2,0,13.1-5.8,13.2-13l-15.6,12.8C176.3,333.7,177.1,333.8,177.9,333.8z"/>
					<path class="st13" d="M183.7,308.7l-18.5,15.2c0.5,2.1,1.6,4.1,3.1,5.6l20.4-16.8C187.3,311,185.6,309.6,183.7,308.7z"/>
					<path class="st10" d="M177.9,307.3c-7.3,0-13.2,5.9-13.2,13.2c0,1.1,0.2,2.2,0.4,3.3l18.5-15.2
						C181.9,307.8,180,307.3,177.9,307.3z"/>
				</g>
				<g>
					<path class="st10" d="M207.1,333.6l15.6-12.8c0-0.1,0-0.1,0-0.2c0-2.9-1-5.6-2.6-7.8l-20.4,16.8
						C201.7,331.6,204.2,333.1,207.1,333.6z"/>
					<path class="st13" d="M209.5,333.8c7.2,0,13.1-5.8,13.2-13l-15.6,12.8C207.9,333.7,208.7,333.8,209.5,333.8z"/>
					<path class="st13" d="M215.2,308.7l-18.5,15.2c0.5,2.1,1.6,4.1,3.1,5.6l20.4-16.8C218.9,311,217.2,309.6,215.2,308.7z"/>
					<path class="st10" d="M209.5,307.3c-7.3,0-13.2,5.9-13.2,13.2c0,1.1,0.2,2.2,0.4,3.3l18.5-15.2
						C213.5,307.8,211.6,307.3,209.5,307.3z"/>
				</g>
				<g>
					<path class="st10" d="M238.7,333.6l15.6-12.8c0-0.1,0-0.1,0-0.2c0-2.9-1-5.6-2.6-7.8l-20.4,16.8
						C233.2,331.6,235.8,333.1,238.7,333.6z"/>
					<path class="st13" d="M241.1,333.8c7.2,0,13.1-5.8,13.2-13l-15.6,12.8C239.5,333.7,240.3,333.8,241.1,333.8z"/>
					<path class="st13" d="M246.8,308.7l-18.5,15.2c0.5,2.1,1.6,4.1,3.1,5.6l20.4-16.8C250.5,311,248.8,309.6,246.8,308.7z"/>
					<path class="st10" d="M241.1,307.3c-7.3,0-13.2,5.9-13.2,13.2c0,1.1,0.2,2.2,0.4,3.3l18.5-15.2
						C245.1,307.8,243.1,307.3,241.1,307.3z"/>
				</g>
			</g>
		</g>
		<g class="st1">
			<rect x="280.8" y="343.1" class="st12" width="97" height="5.1"/>
			<rect x="276.2" y="359.2" class="st12" width="105.8" height="17.7"/>
			<g>
				<g>
					
						<ellipse transform="matrix(0.2305 -0.9731 0.9731 0.2305 -144.8341 571.0438)" class="st9" cx="288.6" cy="377.1" rx="7.7" ry="7.7"/>
					
						<rect x="287.9" y="369.3" transform="matrix(0.9665 -0.2568 0.2568 0.9665 -87.1583 86.7698)" class="st12" width="1.5" height="15.7"/>
					
						<rect x="287.9" y="369.3" transform="matrix(0.319 -0.9478 0.9478 0.319 -160.8251 530.3809)" class="st12" width="1.5" height="15.7"/>
					
						<rect x="287.9" y="369.3" transform="matrix(-0.7071 -0.7071 0.7071 -0.7071 226.1024 847.8523)" class="st12" width="1.5" height="15.7"/>
					<path class="st6" d="M288.6,368.3c-4.9,0-8.8,4-8.8,8.8c0,4.9,4,8.8,8.8,8.8s8.8-4,8.8-8.8
						C297.5,372.2,293.5,368.3,288.6,368.3z M288.6,384.3c-4,0-7.2-3.2-7.2-7.2c0-4,3.2-7.2,7.2-7.2c4,0,7.2,3.2,7.2,7.2
						C295.8,381.1,292.6,384.3,288.6,384.3z"/>
					<path class="st6" d="M290.9,377.1c0,1.3-1,2.3-2.3,2.3c-1.3,0-2.3-1-2.3-2.3c0-1.3,1-2.3,2.3-2.3
						C289.9,374.8,290.9,375.8,290.9,377.1z"/>
					<circle class="st9" cx="287.9" cy="376.3" r="0.7"/>
				</g>
				<g>
					
						<ellipse transform="matrix(0.2305 -0.9731 0.9731 0.2305 -128.0825 592.2275)" class="st9" cx="310.4" cy="377.1" rx="7.7" ry="7.7"/>
					
						<rect x="309.7" y="369.3" transform="matrix(0.9665 -0.2568 0.2568 0.9665 -86.4282 92.3603)" class="st12" width="1.5" height="15.7"/>
					
						<rect x="309.7" y="369.3" transform="matrix(0.319 -0.9478 0.9478 0.319 -145.9993 551.0137)" class="st12" width="1.5" height="15.7"/>
					
						<rect x="309.7" y="369.3" transform="matrix(-0.7071 -0.7071 0.7071 -0.7071 263.2661 863.246)" class="st12" width="1.5" height="15.7"/>
					<path class="st6" d="M310.4,368.3c-4.9,0-8.8,4-8.8,8.8c0,4.9,4,8.8,8.8,8.8c4.9,0,8.8-4,8.8-8.8
						C319.2,372.2,315.3,368.3,310.4,368.3z M310.4,384.3c-4,0-7.2-3.2-7.2-7.2c0-4,3.2-7.2,7.2-7.2c4,0,7.2,3.2,7.2,7.2
						C317.6,381.1,314.4,384.3,310.4,384.3z"/>
					<path class="st6" d="M312.7,377.1c0,1.3-1,2.3-2.3,2.3c-1.3,0-2.3-1-2.3-2.3c0-1.3,1-2.3,2.3-2.3
						C311.7,374.8,312.7,375.8,312.7,377.1z"/>
					<circle class="st9" cx="309.7" cy="376.3" r="0.7"/>
				</g>
				<g>
					
						<ellipse transform="matrix(0.1606 -0.987 0.987 0.1606 -80.164 659.9385)" class="st9" cx="347.9" cy="377.1" rx="7.7" ry="7.7"/>
					
						<rect x="347.2" y="369.3" transform="matrix(0.9665 -0.2568 0.2568 0.9665 -85.1711 101.987)" class="st12" width="1.5" height="15.7"/>
					
						<rect x="347.2" y="369.3" transform="matrix(0.319 -0.9478 0.9478 0.319 -120.4712 586.539)" class="st12" width="1.5" height="15.7"/>
					
						<rect x="347.2" y="369.3" transform="matrix(-0.7071 -0.7071 0.7071 -0.7071 327.2648 889.7539)" class="st12" width="1.5" height="15.7"/>
					<path class="st6" d="M347.9,368.3c-4.9,0-8.8,4-8.8,8.8c0,4.9,4,8.8,8.8,8.8s8.8-4,8.8-8.8
						C356.7,372.2,352.8,368.3,347.9,368.3z M347.9,384.3c-4,0-7.2-3.2-7.2-7.2c0-4,3.2-7.2,7.2-7.2c4,0,7.2,3.2,7.2,7.2
						C355.1,381.1,351.9,384.3,347.9,384.3z"/>
					<circle class="st6" cx="347.9" cy="377.1" r="2.3"/>
					<path class="st9" d="M347.9,376.3c0,0.4-0.3,0.7-0.7,0.7c-0.4,0-0.7-0.3-0.7-0.7c0-0.4,0.3-0.7,0.7-0.7
						C347.6,375.6,347.9,375.9,347.9,376.3z"/>
				</g>
				<g>
					
						<ellipse transform="matrix(0.1606 -0.987 0.987 0.1606 -61.8896 681.4261)" class="st9" cx="369.7" cy="377.1" rx="7.7" ry="7.7"/>
					
						<rect x="368.9" y="369.3" transform="matrix(0.9665 -0.2568 0.2568 0.9665 -84.4411 107.5775)" class="st12" width="1.5" height="15.7"/>
					
						<rect x="368.9" y="369.3" transform="matrix(0.319 -0.9478 0.9478 0.319 -105.6456 607.1716)" class="st12" width="1.5" height="15.7"/>
					
						<rect x="368.9" y="369.3" transform="matrix(-0.7071 -0.7071 0.7071 -0.7071 364.4288 905.1475)" class="st12" width="1.5" height="15.7"/>
					<path class="st6" d="M369.7,368.3c-4.9,0-8.8,4-8.8,8.8c0,4.9,4,8.8,8.8,8.8c4.9,0,8.8-4,8.8-8.8
						C378.5,372.2,374.6,368.3,369.7,368.3z M369.7,384.3c-4,0-7.2-3.2-7.2-7.2c0-4,3.2-7.2,7.2-7.2c4,0,7.2,3.2,7.2,7.2
						C376.9,381.1,373.6,384.3,369.7,384.3z"/>
					<circle class="st6" cx="369.7" cy="377.1" r="2.3"/>
					<path class="st9" d="M369.6,376.3c0,0.4-0.3,0.7-0.7,0.7c-0.4,0-0.7-0.3-0.7-0.7c0-0.4,0.3-0.7,0.7-0.7
						C369.3,375.6,369.6,375.9,369.6,376.3z"/>
				</g>
			</g>
			<polygon class="st11" points="276.4,343.1 382,343.1 382,298.1 276.2,298.1 			"/>
			<path class="st6" d="M277.6,291.8h103c2.2,0,3.9,1.8,3.9,3.9v2.3H273.6v-2.3C273.6,293.6,275.4,291.8,277.6,291.8z"/>
			<g>
				<rect x="276.2" y="348.2" class="st6" width="105.8" height="11"/>
			</g>
			<g>
				<g>
					<path class="st10" d="M295.1,333.6l15.6-12.8c0-0.1,0-0.1,0-0.2c0-2.9-1-5.6-2.6-7.8l-20.4,16.8
						C289.6,331.6,292.2,333.1,295.1,333.6z"/>
					<path class="st13" d="M297.5,333.8c7.2,0,13.1-5.8,13.2-13l-15.6,12.8C295.9,333.7,296.7,333.8,297.5,333.8z"/>
					<path class="st13" d="M303.2,308.7l-18.5,15.2c0.5,2.1,1.6,4.1,3.1,5.6l20.4-16.8C306.9,311,305.2,309.6,303.2,308.7z"/>
					<path class="st10" d="M297.5,307.3c-7.3,0-13.2,5.9-13.2,13.2c0,1.1,0.2,2.2,0.4,3.3l18.5-15.2
						C301.5,307.8,299.5,307.3,297.5,307.3z"/>
				</g>
				<g>
					<path class="st10" d="M326.7,333.6l15.6-12.8c0-0.1,0-0.1,0-0.2c0-2.9-1-5.6-2.6-7.8l-20.4,16.8
						C321.2,331.6,323.8,333.1,326.7,333.6z"/>
					<path class="st13" d="M329.1,333.8c7.2,0,13.1-5.8,13.2-13l-15.6,12.8C327.5,333.7,328.2,333.8,329.1,333.8z"/>
					<path class="st13" d="M334.8,308.7l-18.5,15.2c0.5,2.1,1.6,4.1,3.1,5.6l20.4-16.8C338.4,311,336.8,309.6,334.8,308.7z"/>
					<path class="st10" d="M329.1,307.3c-7.3,0-13.2,5.9-13.2,13.2c0,1.1,0.2,2.2,0.4,3.3l18.5-15.2
						C333.1,307.8,331.1,307.3,329.1,307.3z"/>
				</g>
				<g>
					<path class="st10" d="M358.2,333.6l15.6-12.8c0-0.1,0-0.1,0-0.2c0-2.9-1-5.6-2.6-7.8l-20.4,16.8
						C352.8,331.6,355.3,333.1,358.2,333.6z"/>
					<path class="st13" d="M360.6,333.8c7.2,0,13.1-5.8,13.2-13l-15.6,12.8C359,333.7,359.8,333.8,360.6,333.8z"/>
					<path class="st13" d="M366.4,308.7l-18.5,15.2c0.5,2.1,1.6,4.1,3.1,5.6l20.4-16.8C370,311,368.3,309.6,366.4,308.7z"/>
					<path class="st10" d="M360.6,307.3c-7.3,0-13.2,5.9-13.2,13.2c0,1.1,0.2,2.2,0.4,3.3l18.5-15.2
						C364.6,307.8,362.7,307.3,360.6,307.3z"/>
				</g>
			</g>
			<rect x="262.5" y="362.9" class="st6" width="13.8" height="8.1"/>
		</g>
	</g>
</g>
</svg>
