<!-- Generator: Adobe Illustrator 22.1.0, SVG Export Plug-In  -->
<svg version="1.1"
	 xmlns="http://www.w3.org/2000/svg" xmlns:xlink="http://www.w3.org/1999/xlink" xmlns:a="http://ns.adobe.com/AdobeSVGViewerExtensions/3.0/"
	 x="0px" y="0px" width="745.8px" height="83.8px" viewBox="0 0 745.8 83.8" style="enable-background:new 0 0 745.8 83.8;"
	 xml:space="preserve">
<style type="text/css">
	.st0{fill:#00A1D9;}
</style>
<defs>
</defs>
<path class="st0" d="M745.8,5.3C730,2.2,712.9,0,693.8,0c-2,0-3.9,0-5.9,0.1c-2,0-3.9-0.1-5.9-0.1c-69.8,0-114.2,28.9-156.3,28.9
	C483.5,28.9,439.1,0,369.3,0c-2,0-3.9,0-5.9,0.1c-2,0-3.9-0.1-5.9-0.1c-69.8,0-114.2,28.9-156.3,28.9C159,28.9,114.6,0,44.8,0
	c-2,0-3.9,0-5.9,0.1C36.9,0,35,0,33,0C21.3,0,10.4,0.8,0,2.2v81.6h745.8V5.3z"/>
</svg>
