<svg id="OBJECTS" xmlns="http://www.w3.org/2000/svg" viewBox="0 0 153.79 38.96"><defs><style>.cls-1{fill:#f2ebbf;}</style></defs><title>shkrim ark</title><path class="cls-1" d="M172.22,282.59a3.32,3.32,0,0,1,2.71-.72,3.91,3.91,0,0,1,1.55.87c.91-.6,1.81-1.19,2.73-1.77a5,5,0,0,0-2.37-1.73c-1.9-.7-4-.29-6.24,1.29a6.78,6.78,0,0,0-2.94,4.43,7.46,7.46,0,0,0,1.92,6,8.34,8.34,0,0,0,4.91,3.25,6.49,6.49,0,0,0,5.12-1.28,6,6,0,0,0,2.53-3.53,6.94,6.94,0,0,0-.41-4.37c-.88.55-1.74,1.11-2.6,1.69a4.69,4.69,0,0,1,.3,1.84,2.94,2.94,0,0,1-1.38,2.24,3.28,3.28,0,0,1-2.79.51,5.81,5.81,0,0,1-3-2.34,6.14,6.14,0,0,1-1.48-3.65A3.25,3.25,0,0,1,172.22,282.59Z" transform="translate(-167.57 -257.64)"/><path class="cls-1" d="M184.89,271.56a7,7,0,0,0-3.76,4c-.72,2-.34,4.11,1.05,6.4a8.19,8.19,0,0,0,5,4.06,7.6,7.6,0,0,0,8.29-4.35,8.32,8.32,0,0,0-.53-6.42c-1.09-2.44-2.62-4-4.64-4.51A6.87,6.87,0,0,0,184.89,271.56Zm7.93,8.95a3.57,3.57,0,0,1-1.93,2.49,3.62,3.62,0,0,1-3.17.19,6.13,6.13,0,0,1-2.83-2.79,5.65,5.65,0,0,1-.89-3.89,3.79,3.79,0,0,1,2.09-2.65,3.72,3.72,0,0,1,3.36-.2,5.7,5.7,0,0,1,2.66,2.95A6.06,6.06,0,0,1,192.82,280.51Z" transform="translate(-167.57 -257.64)"/><path class="cls-1" d="M206.58,273.85q-4.35-3.92-9.14-7.54c-1.08.43-2.15.86-3.21,1.32L200,281.11c.84-.35,1.68-.7,2.52-1q-1.9-4.84-3.83-9.67,4.8,3.69,9.16,7.71c.92-.31,1.84-.61,2.76-.89q-2.16-7-4.33-14c-1,.3-2,.61-2.92.94Q205,269,206.58,273.85Z" transform="translate(-167.57 -257.64)"/><path class="cls-1" d="M218.25,269.6c1.09-.24,2.18-.47,3.28-.68a4,4,0,0,1-.72,2.51,3.59,3.59,0,0,1-2.2,1.37,4,4,0,0,1-2.9-.47,5.13,5.13,0,0,1-2.12-3.4,5.83,5.83,0,0,1,.13-4.18,3.79,3.79,0,0,1,2.65-2,4.53,4.53,0,0,1,1.79-.05,2.84,2.84,0,0,1,2.14,1.71c1-.19,2-.38,3-.55a5.07,5.07,0,0,0-2.61-3.13,7.08,7.08,0,0,0-5-.43,6.92,6.92,0,0,0-4.83,3.4,7.69,7.69,0,0,0-.41,6,8.06,8.06,0,0,0,3.33,4.82,6,6,0,0,0,4.89.86,5.27,5.27,0,0,0,2.59-1.31,7.35,7.35,0,0,0,1.21-1.73c.21.58.41,1.16.62,1.75.63-.12,1.25-.23,1.88-.33L223.77,266c-2,.34-4,.73-6.05,1.17C217.9,268,218.07,268.8,218.25,269.6Z" transform="translate(-167.57 -257.64)"/><path class="cls-1" d="M227.55,273.41c.94-.13,1.89-.26,2.83-.37l-1.71-14.55q-1.6.19-3.21.42Q226.51,266.15,227.55,273.41Z" transform="translate(-167.57 -257.64)"/><path class="cls-1" d="M241.05,266.66a5.28,5.28,0,0,1-.3,2.21,2.27,2.27,0,0,1-2.27,1.3,2.3,2.3,0,0,1-2.39-1.1,5.19,5.19,0,0,1-.49-2.18l-.6-9c-1.1.07-2.2.16-3.3.26l.84,9a7.93,7.93,0,0,0,1,3.56c1,1.51,2.66,2.17,5,2.07s3.95-.9,4.81-2.49a7.83,7.83,0,0,0,.72-3.63c0-3,0-6,.07-9-1.11,0-2.21,0-3.31,0Q241,262.16,241.05,266.66Z" transform="translate(-167.57 -257.64)"/><path class="cls-1" d="M255.73,268.52q-2.28-5.38-5.06-10.67c-1.14-.06-2.27-.12-3.41-.15q-.22,7.32-.46,14.64l2.67.12q.3-5.19.58-10.38c1.85,3.57,3.52,7.19,5,10.83.95.1,1.9.22,2.85.34q1-7.26,1.94-14.52c-1-.13-2-.26-3-.36C256.46,261.75,256.1,265.14,255.73,268.52Z" transform="translate(-167.57 -257.64)"/><path class="cls-1" d="M273,263.73c.2-.8.39-1.59.59-2.39-3.84-.95-7.72-1.72-11.61-2.31l-.39,2.57c2.51.37,5,.83,7.5,1.36a115.22,115.22,0,0,0-9.09,8c-.13.85-.26,1.7-.38,2.55q5.25.79,10.45,2.08c.21-.84.41-1.68.62-2.51-2.37-.59-4.77-1.11-7.17-1.54A115.6,115.6,0,0,1,273,263.73Z" transform="translate(-167.57 -257.64)"/><path class="cls-1" d="M271.82,276c.93.25,1.85.51,2.77.78q2.09-7,4.15-14.05c-1.05-.31-2.09-.6-3.14-.88Z" transform="translate(-167.57 -257.64)"/><path class="cls-1" d="M288.41,265.54a6.81,6.81,0,0,0-5.43-.14c-1.93.77-3.26,2.47-4.07,5a8.3,8.3,0,0,0,.21,6.42,7.41,7.41,0,0,0,8.63,3.32,8.27,8.27,0,0,0,4.47-4.63c1.11-2.44,1.25-4.6.33-6.47A6.81,6.81,0,0,0,288.41,265.54Zm-1.51,11.85a3.46,3.46,0,0,1-3.12.2,3.51,3.51,0,0,1-2.19-2.24,6.07,6.07,0,0,1,.24-4,5.65,5.65,0,0,1,2.32-3.23,3.7,3.7,0,0,1,3.33-.2,3.66,3.66,0,0,1,2.33,2.38,5.71,5.71,0,0,1-.45,3.94A6.13,6.13,0,0,1,286.9,277.39Z" transform="translate(-167.57 -257.64)"/><path class="cls-1" d="M301.08,283.39q0-5.89-.46-11.89c-1-.54-2.08-1.06-3.12-1.56l-6.34,13.21c.82.4,1.64.8,2.46,1.22l4.72-9.26q.44,6.06.34,12l2.55,1.52q3.82-6.24,7.67-12.48c-.9-.55-1.79-1.09-2.7-1.61Z" transform="translate(-167.57 -257.64)"/><path class="cls-1" d="M307.59,289.65l2.14-3.1q3,2.08,6,4.4l1.58-2q-3-2.35-6.11-4.5l1.77-2.56c2.31,1.59,4.58,3.28,6.81,5.05l1.62-2q-4.72-3.77-9.71-7-4,6.13-8,12.28,4.54,3,8.85,6.4l1.65-2Q310.94,292,307.59,289.65Z" transform="translate(-167.57 -257.64)"/></svg>